<svg xmlns="http://www.w3.org/2000/svg" width="207.281" height="207.281" viewBox="0 0 207.281 207.281">
  <g id="achiver" transform="translate(0 0)">
    <path id="Path_183" data-name="Path 183" d="M166.471,270.523,180.1,256.894a42.561,42.561,0,1,0,25.752,25.817l-13.665,13.665a26.431,26.431,0,1,1-25.715-25.853Zm0,0" transform="translate(-83.306 -172.125)" fill="#30b8ff"/>
    <path id="Path_184" data-name="Path 184" d="M131.836,190.109a54.7,54.7,0,1,1-25.76-25.809l20.411-20.411a82.49,82.49,0,1,0,25.768,25.8Zm0,0" transform="translate(-0.001 -88.814)" fill="#f23636"/>
    <path id="Path_185" data-name="Path 185" d="M349.224,28.008a7.1,7.1,0,0,0-5.93-4.749l-14.876-1.716L326.7,6.668a7.147,7.147,0,0,0-12.153-4.236L285.142,31.84a7.106,7.106,0,0,0-2.046,5.872l2.128,18.437L229.661,111.71a14.286,14.286,0,1,0,8.59,8.589l55.561-55.563,18.437,2.129a7.106,7.106,0,0,0,5.872-2.047l29.407-29.406a7.093,7.093,0,0,0,1.7-7.4Zm0,0" transform="translate(-142.348 -0.332)"/>
  </g>
</svg>
