<svg xmlns="http://www.w3.org/2000/svg" width="199.291" height="196.6" viewBox="0 0 199.291 196.6">
  <g id="ai" transform="translate(-34.5)">
    <path id="Path_1456" data-name="Path 1456" d="M229.293,84.012c2.485,0,4.5-1.719,4.5-3.84s-2.014-3.84-4.5-3.84H212.251V65.878h17.042c2.485,0,4.5-1.719,4.5-3.84s-2.014-3.84-4.5-3.84H212.251V51.916a3.578,3.578,0,0,0-1.316-2.714L197.926,38.089a4.917,4.917,0,0,0-3.182-1.126h-7.362V22.43c0-2.121-2.014-3.84-4.5-3.84s-4.5,1.719-4.5,3.84V36.963h-12.25V22.43c0-2.121-2.014-3.84-4.5-3.84s-4.5,1.719-4.5,3.84V36.963H144.9V23.2C144.9,10.409,132.7,0,117.712,0,105.447,0,94.787,7.076,91.536,16.906a43.4,43.4,0,0,0-24.7,10.115c-7.549,6.524-11.706,15.168-11.706,24.339A30.406,30.406,0,0,0,58.205,64.6a43.107,43.107,0,0,0-15.84,12.074A34.215,34.215,0,0,0,34.5,98.294c0,14.3,9.16,27.126,23.7,33.706a30.361,30.361,0,0,0-3.068,13.227c0,9.171,4.157,17.815,11.706,24.339a43.4,43.4,0,0,0,24.7,10.115c3.251,9.837,13.911,16.917,26.176,16.917,14.991,0,27.187-10.409,27.187-23.2V159.625h12.237v14.544c0,2.121,2.014,3.84,4.5,3.84s4.5-1.719,4.5-3.84V159.625h12.25v14.544c0,2.121,2.014,3.84,4.5,3.84s4.5-1.719,4.5-3.84V159.625h7.362a4.917,4.917,0,0,0,3.181-1.125l13.009-11.1a3.58,3.58,0,0,0,1.318-2.715V138.39h17.041c2.485,0,4.5-1.719,4.5-3.84s-2.014-3.84-4.5-3.84H212.251V120.267h17.042c2.485,0,4.5-1.719,4.5-3.84s-2.014-3.84-4.5-3.84H212.251V102.134h17.042c2.485,0,4.5-1.719,4.5-3.84s-2.014-3.84-4.5-3.84H212.251V84.012ZM117.713,188.92c-7.463,0-14.033-3.917-16.8-9.573a44.685,44.685,0,0,0,9.557-2.558,40.45,40.45,0,0,0,11.885-7.127,3.457,3.457,0,0,0-.067-5.43,5.062,5.062,0,0,0-6.362.058,31.344,31.344,0,0,1-9.208,5.52,34.875,34.875,0,0,1-11.543,2.368c-17.127-.241-31.043-12.309-31.043-26.949a23.936,23.936,0,0,1,4.026-13.182,3.343,3.343,0,0,0,.323-3.156,4.185,4.185,0,0,0-2.567-2.289C52.3,121.931,43.5,110.82,43.5,98.294S52.3,74.658,65.912,70q4.012-1.852,2.25-5.443a24.005,24.005,0,0,1-4.029-13.2c0-14.64,13.915-26.708,31.043-26.949a35.122,35.122,0,0,1,11.542,2.368,31.136,31.136,0,0,1,9.2,5.525,5.061,5.061,0,0,0,6.362.069,3.456,3.456,0,0,0,.081-5.43,40.266,40.266,0,0,0-11.9-7.148,45.2,45.2,0,0,0-9.547-2.552c2.766-5.652,9.337-9.565,16.8-9.565,10.03,0,18.19,6.964,18.19,15.523V70.28H121.9L109.962,60.094a12.018,12.018,0,0,0,1.948-6.529,12.614,12.614,0,0,0-4.675-9.633,17.98,17.98,0,0,0-22.571,0,12.26,12.26,0,0,0,0,19.264A17.408,17.408,0,0,0,95.949,67.18a18.189,18.189,0,0,0,7.646-1.661l13.258,11.316a5.248,5.248,0,0,0,3.181,1.125H135.9V94.454H107.711c-1.949-5.642-8.074-9.774-15.313-9.774-8.8,0-15.951,6.107-15.951,13.614S83.6,111.918,92.4,111.918c7.24,0,13.366-4.137,15.314-9.785H135.9v16.494H120.034c-.121,0-.224.005-.319.013a4.856,4.856,0,0,0-2.863,1.112l-13.259,11.325a18.094,18.094,0,0,0-18.93,2.323,12.25,12.25,0,0,0,0,19.254,17.979,17.979,0,0,0,22.567,0,12.592,12.592,0,0,0,4.68-9.617,12.013,12.013,0,0,0-1.949-6.538l11.937-10.2h14V173.4c0,8.56-8.159,15.524-18.189,15.524Zm-14.8-135.354a5.5,5.5,0,0,1-2.039,4.2,7.844,7.844,0,0,1-9.848,0,5.348,5.348,0,0,1,0-8.4,7.845,7.845,0,0,1,9.848,0A5.5,5.5,0,0,1,102.913,53.565ZM99.364,98.294c0,3.278-3.125,5.945-6.967,5.945s-6.954-2.667-6.954-5.945,3.12-5.934,6.954-5.934S99.364,95.022,99.364,98.294Zm3.549,44.743a5.481,5.481,0,0,1-2.039,4.188,7.846,7.846,0,0,1-9.853,0,5.337,5.337,0,0,1,0-8.388,7.845,7.845,0,0,1,9.847,0v0h0A5.5,5.5,0,0,1,102.913,143.037Zm100.341.055-10.373,8.853H144.9V140.567h40.521c2.485,0,4.5-1.719,4.5-3.84v-21.2c0-2.121-2.014-3.84-4.5-3.84s-4.5,1.719-4.5,3.84v17.363H144.9V63.712h36.022V81.032c0,2.121,2.014,3.84,4.5,3.84s4.5-1.719,4.5-3.84V59.873c0-2.121-2.014-3.84-4.5-3.84H144.9V44.643h47.979l10.374,8.863Z" fill="#ffc300"/>
    <path id="Path_1457" data-name="Path 1457" d="M363.819,245.958a3.84,3.84,0,0,0-3.84,3.84v.011a3.84,3.84,0,1,0,3.84-3.851Z" transform="translate(-178.043 -151.514)" fill="#ffc300"/>
  </g>
</svg>
