<svg id="bkwd-ten" xmlns="http://www.w3.org/2000/svg" xmlns:xlink="http://www.w3.org/1999/xlink" width="31" height="33.156" viewBox="0 0 31 33.156">
  <defs>
    <clipPath id="clip-path">
      <path id="Subtraction_2" data-name="Subtraction 2" d="M31,0H0V28H15.03V13.576H31V0Z" transform="translate(31 28.001) rotate(180)" fill="#fff"/>
    </clipPath>
  </defs>
  <g id="Group_266" data-name="Group 266">
    <path id="Polygon_3" data-name="Polygon 3" d="M3.136,1.481a1,1,0,0,1,1.728,0L7.123,5.353a1,1,0,0,1-.864,1.5H1.741a1,1,0,0,1-.864-1.5Z" transform="translate(13.072 0) rotate(30)" fill="#87cf35"/>
    <path id="Polygon_4" data-name="Polygon 4" d="M3.136,1.481a1,1,0,0,1,1.728,0L7.123,5.353a1,1,0,0,1-.864,1.5H1.741a1,1,0,0,1-.864-1.5Z" transform="translate(6.072 0) rotate(30)" fill="#87cf35"/>
    <g id="Mask_Group_1" data-name="Mask Group 1" transform="translate(0 5.155)" clip-path="url(#clip-path)">
      <g id="Ellipse_164" data-name="Ellipse 164" transform="translate(3 0)" fill="none" stroke="#87cf35" stroke-width="2">
        <circle cx="14" cy="14" r="14" stroke="none"/>
        <circle cx="14" cy="14" r="13" fill="none"/>
      </g>
    </g>
  </g>
  <text id="_10" data-name="10" transform="translate(8 27.155)" fill="#87cf35" font-size="20" font-family="Impact"><tspan x="0" y="0">10</tspan></text>
</svg>
