<svg xmlns="http://www.w3.org/2000/svg" width="30" height="27.71" viewBox="0 0 30 27.71">
  <g id="cart" transform="translate(-3.382 -4.493)">
    <path id="Path_341" data-name="Path 341" d="M12.938,29.813a1.688,1.688,0,1,1-1.687-1.688,1.688,1.688,0,0,1,1.688,1.688Z" transform="translate(0.182 0.702)" fill="#4d4d4d"/>
    <path id="Path_342" data-name="Path 342" d="M28.723,29.813a1.687,1.687,0,1,1-1.687-1.688,1.687,1.687,0,0,1,1.687,1.688Z" transform="translate(0.761 0.702)" fill="#4d4d4d"/>
    <path id="Path_343" data-name="Path 343" d="M33.371,9.445a.425.425,0,0,0-.375-.3L9.5,6.857a.723.723,0,0,1-.541-.341,7.387,7.387,0,0,0-.88-1.349c-.555-.682-1.6-.66-3.521-.674A1.053,1.053,0,0,0,3.382,5.515,1.033,1.033,0,0,0,4.507,6.538a9.538,9.538,0,0,1,1.876.138c.339.1.613.66.714,1.146a.027.027,0,0,0,.007.022c.014.087.144.74.144.747l2.886,15.343a5.654,5.654,0,0,0,1.046,2.589A2.874,2.874,0,0,0,13.554,27.7H30.623a1.028,1.028,0,0,0,1.039-.972,1.008,1.008,0,0,0-1.01-1.059H13.54a.835.835,0,0,1-.6-.2,3.26,3.26,0,0,1-.83-1.885l-.31-1.718a.04.04,0,0,1,.029-.044l20.034-3.408a.423.423,0,0,0,.353-.377l1.154-8.4A.416.416,0,0,0,33.371,9.445Z" transform="translate(0 0)" fill="#4d4d4d"/>
  </g>
</svg>
