<svg xmlns="http://www.w3.org/2000/svg" width="112.412" height="112.408" viewBox="0 0 112.412 112.408">
  <g id="enthusiat" transform="translate(0 0)">
    <g id="Group_13" data-name="Group 13" transform="translate(0 39.735)">
      <g id="Group_12" data-name="Group 12">
        <path id="Path_186" data-name="Path 186" d="M9.88,180.991H3.293a3.293,3.293,0,0,0,0,6.587H9.88a3.293,3.293,0,0,0,0-6.587Z" transform="translate(0 -180.991)" fill="#e14a4a"/>
      </g>
    </g>
    <g id="Group_15" data-name="Group 15" transform="translate(0.965 17.647)">
      <g id="Group_14" data-name="Group 14">
        <path id="Path_187" data-name="Path 187" d="M14.673,86.007l-4.657-4.657A3.293,3.293,0,0,0,5.36,86.007l4.657,4.657a3.293,3.293,0,1,0,4.657-4.657Z" transform="translate(-4.395 -80.386)" fill="#e14a4a"/>
      </g>
    </g>
    <g id="Group_17" data-name="Group 17" transform="translate(0.965 57.167)">
      <g id="Group_16" data-name="Group 16">
        <path id="Path_188" data-name="Path 188" d="M14.673,261.35a3.292,3.292,0,0,0-4.657,0L5.36,266.007a3.293,3.293,0,0,0,4.657,4.657l4.657-4.657A3.292,3.292,0,0,0,14.673,261.35Z" transform="translate(-4.395 -260.385)" fill="#e14a4a"/>
      </g>
    </g>
    <g id="Group_19" data-name="Group 19" transform="translate(99.239 39.735)">
      <g id="Group_18" data-name="Group 18">
        <path id="Path_189" data-name="Path 189" d="M461.88,180.991h-6.587a3.293,3.293,0,1,0,0,6.587h6.587a3.293,3.293,0,0,0,0-6.587Z" transform="translate(-452 -180.991)" fill="#e14a4a"/>
      </g>
    </g>
    <g id="Group_21" data-name="Group 21" transform="translate(100.204 17.647)">
      <g id="Group_20" data-name="Group 20">
        <path id="Path_190" data-name="Path 190" d="M466.673,81.351a3.292,3.292,0,0,0-4.657,0l-4.657,4.657a3.293,3.293,0,0,0,4.657,4.657l4.657-4.657A3.292,3.292,0,0,0,466.673,81.351Z" transform="translate(-456.395 -80.386)" fill="#e14a4a"/>
      </g>
    </g>
    <g id="Group_23" data-name="Group 23" transform="translate(100.204 57.167)">
      <g id="Group_22" data-name="Group 22">
        <path id="Path_191" data-name="Path 191" d="M466.673,266.008l-4.657-4.657a3.293,3.293,0,0,0-4.657,4.657l4.657,4.657a3.293,3.293,0,1,0,4.657-4.657Z" transform="translate(-456.395 -260.386)" fill="#e14a4a"/>
      </g>
    </g>
    <g id="Group_25" data-name="Group 25" transform="translate(59.499 39.735)">
      <g id="Group_24" data-name="Group 24">
        <path id="Path_192" data-name="Path 192" d="M280.88,180.991a9.891,9.891,0,0,0-9.88,9.88v3.293h3.293a9.891,9.891,0,0,0,9.88-9.88v-3.293Z" transform="translate(-271 -180.991)" fill="#e14a4a"/>
      </g>
    </g>
    <g id="Group_27" data-name="Group 27" transform="translate(16.687)">
      <g id="Group_26" data-name="Group 26">
        <path id="Path_193" data-name="Path 193" d="M140.433,8.844A39.594,39.594,0,0,0,85.981,65.963a25.993,25.993,0,0,1,6.176,13.521H112.23V59.5h-3.293A16.486,16.486,0,0,1,92.471,43.038V36.452a3.291,3.291,0,0,1,3.293-3.293h6.587a16.4,16.4,0,0,1,13.173,6.688A16.4,16.4,0,0,1,128.7,33.158h6.587a3.291,3.291,0,0,1,3.293,3.293v6.587A16.486,16.486,0,0,1,122.11,59.5h-3.293V79.484H138.9a27.039,27.039,0,0,1,6.357-13.737,39.421,39.421,0,0,0,9.784-26A39.817,39.817,0,0,0,140.433,8.844Z" transform="translate(-76.005 -0.01)" fill="#e14a4a"/>
      </g>
    </g>
    <g id="Group_29" data-name="Group 29" transform="translate(39.739 39.735)">
      <g id="Group_28" data-name="Group 28">
        <path id="Path_194" data-name="Path 194" d="M184.293,180.991H181v3.293a9.891,9.891,0,0,0,9.88,9.88h3.293v-3.293A9.891,9.891,0,0,0,184.293,180.991Z" transform="translate(-181 -180.991)" fill="#e14a4a"/>
      </g>
    </g>
    <g id="Group_31" data-name="Group 31" transform="translate(33.153 86.061)">
      <g id="Group_30" data-name="Group 30">
        <path id="Path_195" data-name="Path 195" d="M151,391.991v3.293a9.891,9.891,0,0,0,9.88,9.88h26.347a9.891,9.891,0,0,0,9.88-9.88v-3.293Z" transform="translate(-151 -391.991)" fill="#e14a4a"/>
      </g>
    </g>
    <g id="Group_33" data-name="Group 33" transform="translate(43.117 105.821)">
      <g id="Group_32" data-name="Group 32">
        <path id="Path_196" data-name="Path 196" d="M196.383,481.991a16.3,16.3,0,0,0,26.178,0Z" transform="translate(-196.383 -481.991)" fill="#e14a4a"/>
      </g>
    </g>
  </g>
</svg>
