<svg xmlns="http://www.w3.org/2000/svg" xmlns:xlink="http://www.w3.org/1999/xlink" width="247.333" height="68.078" viewBox="0 0 247.333 68.078">
  <defs>
    <linearGradient id="linear-gradient" x1="0.821" y1="0.5" x2="-0.033" y2="0.5" gradientUnits="objectBoundingBox">
      <stop offset="0" stop-color="#b6d741"/>
      <stop offset="1" stop-color="#fff" stop-opacity="0"/>
    </linearGradient>
  </defs>
  <g id="gravity-logo" transform="translate(-157.667 18079)">
    <path id="Rectangle_125" data-name="Rectangle 125" d="M0,0H184a9,9,0,0,1,9,9V59a9,9,0,0,1-9,9H0a0,0,0,0,1,0,0V0A0,0,0,0,1,0,0Z" transform="translate(212 -18079)" fill="url(#linear-gradient)"/>
    <g id="Group_640" data-name="Group 640" transform="translate(175 -49)">
      <path id="Path_1600" data-name="Path 1600" d="M2.977-24.891H13.957v4.078a10.181,10.181,0,0,1,3.271-3.645,8.064,8.064,0,0,1,4.165-1,14.615,14.615,0,0,1,5.678,1.313l-3.631,6.8a10.965,10.965,0,0,0-3.286-.7A4.361,4.361,0,0,0,16.58-16.5q-1.816,2.18-1.816,8.156V0H2.977Zm37.784,8.063-11.211-.961a9.258,9.258,0,0,1,1.83-3.762,9.822,9.822,0,0,1,3.444-2.379,16.868,16.868,0,0,1,4.438-1.125,43.838,43.838,0,0,1,6.11-.4,59.509,59.509,0,0,1,8.473.48,12.137,12.137,0,0,1,5.332,2A7.082,7.082,0,0,1,61.54-19.98a9.044,9.044,0,0,1,.865,3.691V-5.3a10.863,10.863,0,0,0,.274,2.754A11.038,11.038,0,0,0,63.875,0H52.865A8.5,8.5,0,0,1,52-1.465a9.138,9.138,0,0,1-.4-1.582A15.7,15.7,0,0,1,47.015-.469,23.018,23.018,0,0,1,39.781.563Q34.3.563,31.466-1.5a6.113,6.113,0,0,1-2.839-5.086,5.976,5.976,0,0,1,2.046-4.664q2.046-1.828,7.551-2.719,6.6-1.078,8.56-1.512t4.15-1.137a2.963,2.963,0,0,0-.893-2.461,5.234,5.234,0,0,0-3.141-.7,9.687,9.687,0,0,0-4.323.75A4.21,4.21,0,0,0,40.761-16.828Zm10.174,5.016q-2.421.7-5.044,1.242a13.154,13.154,0,0,0-4.525,1.523,2.222,2.222,0,0,0-.98,1.758,2.195,2.195,0,0,0,.965,1.84,4.733,4.733,0,0,0,2.839.715,8.638,8.638,0,0,0,3.646-.773,5.378,5.378,0,0,0,2.392-1.887,5.33,5.33,0,0,0,.706-2.895ZM64.97-24.891h12.2L83.113-9.117l6.161-15.773h11.837L88.1,0H77.7Zm39.946,0h11.73V0h-11.73Zm33.374-9.469v9.469h6.456v6.984H138.29v8.818a3.956,3.956,0,0,0,.375,2.1,2.329,2.329,0,0,0,2.017.8,15.507,15.507,0,0,0,3.631-.608l.865,6.585a46.6,46.6,0,0,1-8.127.773,17.015,17.015,0,0,1-6.456-.913,6.169,6.169,0,0,1-3.069-2.774,13.525,13.525,0,0,1-.994-6.027v-8.755h-4.323v-6.984h4.323v-4.57Zm8.675,9.469h12.377l6.313,16.57,5.863-16.57h11.559L170.934,1.7Q168.86,6.255,166.7,7.85q-3.054,2.252-9.305,2.252-2.535,0-7.836-.562l-.921-6.656a22.518,22.518,0,0,0,5.644.656,6.425,6.425,0,0,0,3.355-.774A5.923,5.923,0,0,0,159.809,0Z" transform="translate(41.923 -17994)"/>
      <path id="Path_1599" data-name="Path 1599" d="M30.314-29.406a20.421,20.421,0,0,1,5.94-3.83c3.54-1.432,4.758-1.423,7.264-1.039s3.2.828,3.731,1.352A4.851,4.851,0,0,1,48.625-30.1a3.348,3.348,0,0,1-1.378,2.706,6.887,6.887,0,0,1-3.137,1.53,6.748,6.748,0,0,1-2.942-.229c-.686-.232-1.839-1.586-3.882-1.912s-3.163-.154-4.291.61c2.589,2.506,5.271,5.052,5.421,10.468a14.546,14.546,0,0,1-6.649,11.98C26.917-1.567,20.648-.141,15.98.109S6.671.258,2.531-1.127c-3.641.8-4.821,1.8-5.2,2.166A2.287,2.287,0,0,0-3.587,2.7c0,.971.913,1.845,2.167,2.481C.169,6.014,7.333,6.333,12.015,6.9L26.961,8.814c4.013.5,7.735.973,11.3,2.59s5.035,3.63,5.668,4.908A10.385,10.385,0,0,1,45.1,21.941c-.208,2.461-4.389,6.559-9.164,8.494s-11.177,3.148-23.924,3.148A70.158,70.158,0,0,1-2.666,32.139a72.156,72.156,0,0,1-8.079-2.09s-4.382-1.646-5.46-4.537a6.791,6.791,0,0,1,1.147-7.266c1.692-1.971,8.285-4.588,16.091-6.629-3.968-.8-7.114-1.731-8.826-2.8a7.879,7.879,0,0,1-2.952-3.26,5.57,5.57,0,0,1-.228-1.879A3.324,3.324,0,0,1-9.49,1.039,8.467,8.467,0,0,1-5.813-.629c1.388-.383,4.53-1.117,5.184-1.327-3.052-1.735-8.066-5.7-9.613-7.856a11.863,11.863,0,0,1-2.321-7.08q0-6.355,6.146-11.107,7.463-5.8,20.132-5.8a38.237,38.237,0,0,1,9.846,1.127A31.772,31.772,0,0,1,30.314-29.406ZM13.271-30.1A18.57,18.57,0,0,0,1.916-26.287c-2.845,2.367-4.078,6.846-4.139,9.366A14.364,14.364,0,0,0-.63-10.465C.137-8.9,2.2-6.025,4.544-4.942A24.833,24.833,0,0,0,13.39-2.965,20.892,20.892,0,0,0,21.5-4.942a12.691,12.691,0,0,0,5.461-5.524,16.771,16.771,0,0,0,1.578-6.456,12.491,12.491,0,0,0-4.069-9.366C20.767-29.613,17.664-30.1,13.271-30.1Zm-7.3,42.478C1,13.76-6.476,17.562-7.793,19.266a5.482,5.482,0,0,0,0,6.246c1.282,2.1,5.127,2.92,5.127,2.92s2.786.738,6.181,1.3a57.8,57.8,0,0,0,10.2.705,51.365,51.365,0,0,0,12.54-1.414A26.227,26.227,0,0,0,33,26.658c2.005-1.072,2.443-1.394,3.257-2.8a3.69,3.69,0,0,0,0-3.445c-.31-.893-1.609-2.588-4.486-3.9s-5.655-1.5-8.205-1.829Z" transform="translate(-0.568 -17995.506)"/>
      <path id="Path_1603" data-name="Path 1603" d="M6,0c3.314,0,6,1.791,6,4S9.314,8,6,8,0,6.209,0,4,2.686,0,6,0Z" transform="translate(146.923 -18029)" fill="#ea1874"/>
      <path id="Path_1602" data-name="Path 1602" d="M0,0H143" transform="translate(45.423 -17985.5)" fill="none" stroke="#e3216f" stroke-width="2"/>
      <path id="Path_1601" data-name="Path 1601" d="M6.525-9.4a6.5,6.5,0,0,1,4.427,1.292,4.245,4.245,0,0,1,1.7,3.438,4.376,4.376,0,0,1-1.27,3.1A6.226,6.226,0,0,1,6.634.212a6.406,6.406,0,0,1-4.759-1.7A4.362,4.362,0,0,1,.547-4.662,4.233,4.233,0,0,1,2.275-8.1,6.26,6.26,0,0,1,6.525-9.4Zm.1.438a2.639,2.639,0,0,0-2.38,1.3A5.824,5.824,0,0,0,3.582-4.6,5.107,5.107,0,0,0,4.608-1.094a2.556,2.556,0,0,0,2,.793A2.809,2.809,0,0,0,8.055-.643a2.867,2.867,0,0,0,1.152-1.4,6.428,6.428,0,0,0,.412-2.505A6.883,6.883,0,0,0,9.2-7.3,2.746,2.746,0,0,0,8.127-8.586,2.949,2.949,0,0,0,6.626-8.962Zm11.036,2.57v1.449a5.12,5.12,0,0,1,1.371-1.316,2.349,2.349,0,0,1,1.135-.325,1.134,1.134,0,0,1,.753.236.821.821,0,0,1,.282.667.921.921,0,0,1-.273.711.937.937,0,0,1-.66.253,1.3,1.3,0,0,1-.774-.232q-.328-.232-.387-.26a.436.436,0,0,0-.193-.041.8.8,0,0,0-.462.15,1.427,1.427,0,0,0-.521.663,3.856,3.856,0,0,0-.269,1.463V-1.5l.008.383a1.3,1.3,0,0,0,.059.5.6.6,0,0,0,.3.27,2.078,2.078,0,0,0,.668.106V0H14.45V-.246a1.04,1.04,0,0,0,.694-.229A1.777,1.777,0,0,0,15.325-1.5V-5.038a2.172,2.172,0,0,0-.067-.7.57.57,0,0,0-.244-.28,1.53,1.53,0,0,0-.563-.123v-.253Zm6.824-3.1a1.409,1.409,0,0,1,.925.311.939.939,0,0,1,.378.749.927.927,0,0,1-.383.745,1.423,1.423,0,0,1-.921.308,1.406,1.406,0,0,1-.917-.308.93.93,0,0,1-.378-.745.939.939,0,0,1,.378-.749A1.4,1.4,0,0,1,24.486-9.488Zm1.177,3.1v5.065a1.291,1.291,0,0,0,.193.865,1.2,1.2,0,0,0,.757.215V0H22.367V-.246a1.158,1.158,0,0,0,.774-.246q.168-.157.168-.834V-5.059a1.291,1.291,0,0,0-.193-.865,1.181,1.181,0,0,0-.748-.215v-.253Zm8.926,2.967H30.275a2.936,2.936,0,0,0,.832,2.01,1.925,1.925,0,0,0,1.4.567,1.854,1.854,0,0,0,.917-.229A3.19,3.19,0,0,0,34.3-1.9l.286.15a4.1,4.1,0,0,1-1.413,1.5,3.553,3.553,0,0,1-1.791.441A3.231,3.231,0,0,1,28.737-.9a3.336,3.336,0,0,1-.723-2.187,3.239,3.239,0,0,1,1.064-2.546,3.63,3.63,0,0,1,2.493-.947,2.985,2.985,0,0,1,2.073.8A3.226,3.226,0,0,1,34.589-3.425ZM32.52-3.883a5.163,5.163,0,0,0-.147-1.511,1.225,1.225,0,0,0-.458-.622.809.809,0,0,0-.471-.123.873.873,0,0,0-.715.349,2.565,2.565,0,0,0-.5,1.668v.239Zm6.815-2.509v.827A4.566,4.566,0,0,1,40.5-6.34a2.947,2.947,0,0,1,1.194-.243,2.2,2.2,0,0,1,1.27.345,1.659,1.659,0,0,1,.673.858,5.415,5.415,0,0,1,.135,1.5v2.488a1.59,1.59,0,0,0,.164.919,1.076,1.076,0,0,0,.685.229V0H40.639V-.246a.88.88,0,0,0,.639-.3,1.632,1.632,0,0,0,.135-.848V-4.238a3.8,3.8,0,0,0-.076-.991.614.614,0,0,0-.256-.318.74.74,0,0,0-.4-.113,1.719,1.719,0,0,0-1.345.841v3.425a1.594,1.594,0,0,0,.164.909.914.914,0,0,0,.61.239V0H36.132V-.246a1.081,1.081,0,0,0,.706-.26,1.6,1.6,0,0,0,.143-.889V-5a1.536,1.536,0,0,0-.164-.9,1.115,1.115,0,0,0-.685-.232v-.253ZM49.371-8.729v2.338h1.867v.677H49.371v3.944a2.463,2.463,0,0,0,.063.714.53.53,0,0,0,.223.26.568.568,0,0,0,.294.1,1.332,1.332,0,0,0,1.034-.677l.252.15A2.312,2.312,0,0,1,49.026.089,2.262,2.262,0,0,1,47.761-.25,1.538,1.538,0,0,1,47.1-1a5.266,5.266,0,0,1-.084-1.258V-5.715H45.991v-.239a10.511,10.511,0,0,0,1.8-1.278,8.018,8.018,0,0,0,1.3-1.5Zm5.058-.759a1.409,1.409,0,0,1,.925.311.939.939,0,0,1,.378.749.927.927,0,0,1-.383.745,1.423,1.423,0,0,1-.921.308,1.406,1.406,0,0,1-.917-.308.93.93,0,0,1-.378-.745.939.939,0,0,1,.378-.749A1.4,1.4,0,0,1,54.429-9.488Zm1.177,3.1v5.065a1.291,1.291,0,0,0,.193.865,1.2,1.2,0,0,0,.757.215V0H52.31V-.246a1.158,1.158,0,0,0,.774-.246q.168-.157.168-.834V-5.059a1.291,1.291,0,0,0-.193-.865,1.181,1.181,0,0,0-.748-.215v-.253Zm5.478,0v.827a4.566,4.566,0,0,1,1.16-.776,2.947,2.947,0,0,1,1.194-.243,2.2,2.2,0,0,1,1.27.345,1.659,1.659,0,0,1,.673.858,5.415,5.415,0,0,1,.135,1.5v2.488a1.59,1.59,0,0,0,.164.919,1.076,1.076,0,0,0,.685.229V0H62.388V-.246a.88.88,0,0,0,.639-.3,1.632,1.632,0,0,0,.135-.848V-4.238a3.8,3.8,0,0,0-.076-.991.614.614,0,0,0-.256-.318.74.74,0,0,0-.4-.113,1.719,1.719,0,0,0-1.345.841v3.425a1.594,1.594,0,0,0,.164.909.914.914,0,0,0,.61.239V0H57.881V-.246a1.081,1.081,0,0,0,.706-.26,1.6,1.6,0,0,0,.143-.889V-5a1.536,1.536,0,0,0-.164-.9,1.115,1.115,0,0,0-.685-.232v-.253Zm11.961.075h2.649v.752H74.189a2.437,2.437,0,0,1,.572.608,1.589,1.589,0,0,1,.2.772A1.685,1.685,0,0,1,74.5-3a3.107,3.107,0,0,1-1.27.786,4.349,4.349,0,0,1-1.425.284q-.05,0-1.009-.034a1,1,0,0,0-.635.2.6.6,0,0,0-.256.482.471.471,0,0,0,.231.4,1.377,1.377,0,0,0,.753.157l1.455-.014a6.38,6.38,0,0,1,2.43.314A1.424,1.424,0,0,1,75.719.93a1.524,1.524,0,0,1-.437,1.056,2.584,2.584,0,0,1-1.152.7,8.473,8.473,0,0,1-2.5.335A10.309,10.309,0,0,1,69.7,2.854a3,3,0,0,1-1.253-.465.82.82,0,0,1-.378-.625.733.733,0,0,1,.29-.564,2.579,2.579,0,0,1,1.08-.42Q68.345.342,68.345-.437a1.3,1.3,0,0,1,.446-.916A3.669,3.669,0,0,1,70.2-2.126a3.575,3.575,0,0,1-1.631-.882,1.809,1.809,0,0,1-.5-1.265A1.984,1.984,0,0,1,69.01-5.9a4.007,4.007,0,0,1,2.422-.687A5.281,5.281,0,0,1,73.046-6.316Zm-1.455.157a1.038,1.038,0,0,0-.824.4A2.78,2.78,0,0,0,70.431-4.1a2.177,2.177,0,0,0,.332,1.4,1.014,1.014,0,0,0,.786.379A1.081,1.081,0,0,0,72.39-2.7a2.281,2.281,0,0,0,.336-1.463,2.669,2.669,0,0,0-.378-1.668A.924.924,0,0,0,71.591-6.159Zm-.5,7.1a3.523,3.523,0,0,0-1.135.116q-.479.212-.479.574t.5.632a4.179,4.179,0,0,0,1.867.284A5.352,5.352,0,0,0,73.68,2.3q.668-.253.668-.711a.375.375,0,0,0-.126-.287,1.33,1.33,0,0,0-.685-.28A22.1,22.1,0,0,0,71.095.943Zm16.649-1.2V0H81.782V-.253h.378a1.88,1.88,0,0,0,.8-.144A.677.677,0,0,0,83.3-.725a2.315,2.315,0,0,0,.092-.861v-6.1a2.5,2.5,0,0,0-.092-.889.772.772,0,0,0-.374-.311,1.8,1.8,0,0,0-.761-.133h-.378V-9.27h5.961v.253h-.378a1.88,1.88,0,0,0-.8.144.715.715,0,0,0-.345.328,2.315,2.315,0,0,0-.092.861v6.1a2.4,2.4,0,0,0,.1.889.8.8,0,0,0,.378.311,1.8,1.8,0,0,0,.761.133Zm4.738-6.139v.827a4.566,4.566,0,0,1,1.16-.776,2.947,2.947,0,0,1,1.194-.243,2.2,2.2,0,0,1,1.27.345,1.659,1.659,0,0,1,.673.858,5.415,5.415,0,0,1,.135,1.5v2.488a1.59,1.59,0,0,0,.164.919,1.076,1.076,0,0,0,.685.229V0H93.785V-.246a.88.88,0,0,0,.639-.3,1.632,1.632,0,0,0,.135-.848V-4.238a3.8,3.8,0,0,0-.076-.991.614.614,0,0,0-.256-.318.74.74,0,0,0-.4-.113,1.719,1.719,0,0,0-1.345.841v3.425a1.594,1.594,0,0,0,.164.909.914.914,0,0,0,.61.239V0H89.279V-.246a1.081,1.081,0,0,0,.706-.26,1.6,1.6,0,0,0,.143-.889V-5a1.536,1.536,0,0,0-.164-.9,1.115,1.115,0,0,0-.685-.232v-.253Zm10.036-2.338v2.338h1.867v.677h-1.867v3.944a2.464,2.464,0,0,0,.063.714.53.53,0,0,0,.223.26.568.568,0,0,0,.294.1,1.332,1.332,0,0,0,1.034-.677l.252.15A2.312,2.312,0,0,1,102.173.089a2.262,2.262,0,0,1-1.265-.338,1.538,1.538,0,0,1-.66-.755,5.266,5.266,0,0,1-.084-1.258V-5.715H99.138v-.239a10.511,10.511,0,0,0,1.8-1.278,8.018,8.018,0,0,0,1.3-1.5Zm9.825,5.3H108.03a2.936,2.936,0,0,0,.832,2.01,1.925,1.925,0,0,0,1.4.567,1.854,1.854,0,0,0,.916-.229,3.19,3.19,0,0,0,.883-.824l.286.15a4.1,4.1,0,0,1-1.413,1.5,3.553,3.553,0,0,1-1.791.441A3.231,3.231,0,0,1,106.491-.9a3.336,3.336,0,0,1-.723-2.187,3.239,3.239,0,0,1,1.064-2.546,3.63,3.63,0,0,1,2.493-.947,2.985,2.985,0,0,1,2.073.8A3.226,3.226,0,0,1,112.343-3.425Zm-2.068-.458a5.163,5.163,0,0,0-.147-1.511,1.225,1.225,0,0,0-.458-.622.809.809,0,0,0-.471-.123.873.873,0,0,0-.715.349,2.565,2.565,0,0,0-.5,1.668v.239Zm6.681-5.387v7.943a1.291,1.291,0,0,0,.193.865,1.2,1.2,0,0,0,.757.215V0h-4.246V-.246a1.158,1.158,0,0,0,.774-.246q.168-.157.168-.834V-7.943a1.276,1.276,0,0,0-.193-.858,1.181,1.181,0,0,0-.748-.215V-9.27Zm5.335,0v7.943a1.291,1.291,0,0,0,.193.865,1.2,1.2,0,0,0,.757.215V0h-4.246V-.246a1.158,1.158,0,0,0,.774-.246q.168-.157.168-.834V-7.943a1.276,1.276,0,0,0-.193-.858,1.181,1.181,0,0,0-.748-.215V-9.27Zm4.15-.219a1.409,1.409,0,0,1,.925.311.939.939,0,0,1,.378.749.927.927,0,0,1-.383.745,1.423,1.423,0,0,1-.921.308,1.406,1.406,0,0,1-.917-.308.93.93,0,0,1-.378-.745.939.939,0,0,1,.378-.749A1.4,1.4,0,0,1,126.441-9.488Zm1.177,3.1v5.065a1.29,1.29,0,0,0,.193.865,1.2,1.2,0,0,0,.757.215V0h-4.246V-.246a1.158,1.158,0,0,0,.774-.246q.168-.157.168-.834V-5.059a1.291,1.291,0,0,0-.193-.865,1.181,1.181,0,0,0-.748-.215v-.253Zm7.311.075h2.649v.752h-1.505a2.437,2.437,0,0,1,.572.608,1.589,1.589,0,0,1,.2.772A1.685,1.685,0,0,1,136.379-3a3.107,3.107,0,0,1-1.27.786,4.349,4.349,0,0,1-1.425.284q-.05,0-1.009-.034a1,1,0,0,0-.635.2.6.6,0,0,0-.256.482.471.471,0,0,0,.231.4,1.377,1.377,0,0,0,.753.157l1.455-.014a6.38,6.38,0,0,1,2.43.314A1.424,1.424,0,0,1,137.6.93a1.524,1.524,0,0,1-.437,1.056,2.584,2.584,0,0,1-1.152.7,8.473,8.473,0,0,1-2.5.335,10.309,10.309,0,0,1-1.934-.167,3,3,0,0,1-1.253-.465.82.82,0,0,1-.378-.625.733.733,0,0,1,.29-.564,2.579,2.579,0,0,1,1.08-.42q-1.093-.438-1.093-1.217a1.3,1.3,0,0,1,.446-.916,3.669,3.669,0,0,1,1.413-.772,3.575,3.575,0,0,1-1.631-.882,1.809,1.809,0,0,1-.5-1.265,1.984,1.984,0,0,1,.942-1.624,4.007,4.007,0,0,1,2.422-.687A5.281,5.281,0,0,1,134.929-6.316Zm-1.455.157a1.038,1.038,0,0,0-.824.4,2.78,2.78,0,0,0-.336,1.658,2.176,2.176,0,0,0,.332,1.4,1.014,1.014,0,0,0,.786.379,1.081,1.081,0,0,0,.841-.376,2.281,2.281,0,0,0,.336-1.463,2.669,2.669,0,0,0-.378-1.668A.924.924,0,0,0,133.474-6.159Zm-.5,7.1a3.522,3.522,0,0,0-1.135.116q-.479.212-.479.574t.5.632a4.179,4.179,0,0,0,1.867.284,5.352,5.352,0,0,0,1.837-.253q.668-.253.668-.711a.375.375,0,0,0-.126-.287,1.329,1.329,0,0,0-.685-.28A22.1,22.1,0,0,0,132.978.943ZM145.7-3.425h-4.313a2.936,2.936,0,0,0,.832,2.01,1.925,1.925,0,0,0,1.4.567,1.854,1.854,0,0,0,.917-.229,3.19,3.19,0,0,0,.883-.824l.286.15a4.1,4.1,0,0,1-1.413,1.5A3.553,3.553,0,0,1,142.5.191,3.231,3.231,0,0,1,139.852-.9a3.336,3.336,0,0,1-.723-2.187,3.239,3.239,0,0,1,1.064-2.546,3.63,3.63,0,0,1,2.493-.947,2.985,2.985,0,0,1,2.073.8A3.225,3.225,0,0,1,145.7-3.425Zm-2.068-.458a5.163,5.163,0,0,0-.147-1.511,1.225,1.225,0,0,0-.458-.622.809.809,0,0,0-.471-.123.873.873,0,0,0-.715.349,2.565,2.565,0,0,0-.5,1.668v.239Zm6.815-2.509v.827a4.566,4.566,0,0,1,1.16-.776,2.947,2.947,0,0,1,1.194-.243,2.2,2.2,0,0,1,1.27.345,1.659,1.659,0,0,1,.673.858,5.415,5.415,0,0,1,.135,1.5v2.488a1.59,1.59,0,0,0,.164.919,1.076,1.076,0,0,0,.685.229V0h-3.977V-.246a.88.88,0,0,0,.639-.3,1.632,1.632,0,0,0,.135-.848V-4.238a3.8,3.8,0,0,0-.076-.991.614.614,0,0,0-.256-.318.74.74,0,0,0-.4-.113,1.719,1.719,0,0,0-1.345.841v3.425a1.594,1.594,0,0,0,.164.909.914.914,0,0,0,.61.239V0h-3.977V-.246a1.081,1.081,0,0,0,.706-.26,1.6,1.6,0,0,0,.143-.889V-5a1.536,1.536,0,0,0-.164-.9,1.115,1.115,0,0,0-.685-.232v-.253Zm13.332,4.744.261.164A3.531,3.531,0,0,1,162.66-.222,3.89,3.89,0,0,1,160.9.191a3.355,3.355,0,0,1-2.514-.964,3.2,3.2,0,0,1-.942-2.317,3.4,3.4,0,0,1,.858-2.3,3.569,3.569,0,0,1,2.85-1.2,3.344,3.344,0,0,1,1.938.5,1.387,1.387,0,0,1,.719,1.114.756.756,0,0,1-.29.622,1.18,1.18,0,0,1-.761.232,1.247,1.247,0,0,1-.82-.267,1.385,1.385,0,0,1-.4-.95.927.927,0,0,0-.244-.6.664.664,0,0,0-.454-.171.864.864,0,0,0-.689.349,2.49,2.49,0,0,0-.437,1.613,4.336,4.336,0,0,0,.353,1.726,2.675,2.675,0,0,0,.967,1.227,1.994,1.994,0,0,0,1.093.294,1.979,1.979,0,0,0,.782-.157A3.545,3.545,0,0,0,163.783-1.647Zm8.438-1.777h-4.313a2.936,2.936,0,0,0,.832,2.01,1.925,1.925,0,0,0,1.4.567,1.854,1.854,0,0,0,.917-.229,3.19,3.19,0,0,0,.883-.824l.286.15a4.1,4.1,0,0,1-1.413,1.5,3.553,3.553,0,0,1-1.791.441A3.231,3.231,0,0,1,166.369-.9a3.336,3.336,0,0,1-.723-2.187,3.239,3.239,0,0,1,1.064-2.546,3.63,3.63,0,0,1,2.493-.947,2.985,2.985,0,0,1,2.073.8A3.226,3.226,0,0,1,172.221-3.425Zm-2.068-.458a5.163,5.163,0,0,0-.147-1.511,1.225,1.225,0,0,0-.458-.622.809.809,0,0,0-.471-.123.873.873,0,0,0-.715.349,2.565,2.565,0,0,0-.5,1.668v.239Z" transform="translate(47.775 -17973)" fill="#333"/>
    </g>
  </g>
</svg>
