<svg xmlns="http://www.w3.org/2000/svg" xmlns:xlink="http://www.w3.org/1999/xlink" width="70" height="68" viewBox="0 0 70 68">
  <defs>
    <linearGradient id="linear-gradient" x1="0.821" y1="0.5" x2="-0.033" y2="0.5" gradientUnits="objectBoundingBox">
      <stop offset="0" stop-color="#b6d741"/>
      <stop offset="1" stop-color="#fff" stop-opacity="0"/>
    </linearGradient>
  </defs>
  <g id="gravity-icon" transform="translate(-43 18087)">
    <path id="Rectangle_125" data-name="Rectangle 125" d="M0,0H61a9,9,0,0,1,9,9V59a9,9,0,0,1-9,9H0a0,0,0,0,1,0,0V0A0,0,0,0,1,0,0Z" transform="translate(43 -18087)" fill="url(#linear-gradient)"/>
    <path id="Path_1599" data-name="Path 1599" d="M24.539-30.33a18.119,18.119,0,0,1,5.211-3.135c3.106-1.172,4.174-1.164,6.373-.85s2.812.678,3.273,1.106A3.876,3.876,0,0,1,40.6-30.894,2.684,2.684,0,0,1,39.4-28.68a6.229,6.229,0,0,1-2.752,1.252,6.328,6.328,0,0,1-2.581-.187c-.6-.19-1.613-1.3-3.406-1.564a4.963,4.963,0,0,0-3.764.5c2.271,2.051,4.625,4.134,4.756,8.567.016,3.215-1.578,7.042-5.834,9.8A29.35,29.35,0,0,1,11.964-6.175,34.3,34.3,0,0,1,.164-7.186C-3.03-6.529-4.065-5.715-4.4-5.414A1.841,1.841,0,0,0-5.2-4.058c0,.795.8,1.51,1.9,2.031,1.394.685,7.679.946,11.787,1.412L21.6.95a35.278,35.278,0,0,1,9.913,2.12c3.127,1.324,4.417,2.971,4.972,4.017a8.032,8.032,0,0,1,1.031,4.607c-.182,2.014-3.85,5.368-8.04,6.952s-9.806,2.577-20.989,2.577A65.826,65.826,0,0,1-4.4,20.038a66.983,66.983,0,0,1-7.088-1.71s-3.844-1.347-4.79-3.713a5.273,5.273,0,0,1,1.006-5.946C-13.783,7.056-8,4.914-1.15,3.244A27.487,27.487,0,0,1-8.893.95a6.581,6.581,0,0,1-2.59-2.668,4.275,4.275,0,0,1-.2-1.538,2.675,2.675,0,0,1,1.3-2.158A7.691,7.691,0,0,1-7.157-6.779c1.218-.313,3.974-.914,4.548-1.086-2.678-1.42-7.076-4.669-8.434-6.429a9.28,9.28,0,0,1-2.036-5.794q0-5.2,5.393-9.09,6.547-4.75,17.663-4.75a35.849,35.849,0,0,1,8.639.923A28.724,28.724,0,0,1,24.539-30.33ZM9.587-30.894A17.067,17.067,0,0,0-.375-27.778c-2.5,1.937-3.578,5.6-3.632,7.665a11.134,11.134,0,0,0,1.4,5.284,11.079,11.079,0,0,0,4.539,4.52A23.117,23.117,0,0,0,9.691-8.69a19.412,19.412,0,0,0,7.116-1.618,10.77,10.77,0,0,0,4.791-4.52,12.978,12.978,0,0,0,1.384-5.284,9.878,9.878,0,0,0-3.57-7.665C16.163-30.5,13.441-30.894,9.587-30.894ZM3.184,3.87C-1.183,5-7.738,8.109-8.893,9.5a4.241,4.241,0,0,0,0,5.112C-7.769,16.337-4.4,17-4.4,17s2.445.6,5.423,1.063a54.3,54.3,0,0,0,8.948.577,48.154,48.154,0,0,0,11-1.157,24.121,24.121,0,0,0,5.915-1.934c1.759-.878,2.143-1.141,2.858-2.3a2.842,2.842,0,0,0,0-2.82c-.272-.73-1.412-2.118-3.936-3.193a24.906,24.906,0,0,0-7.2-1.5Z" transform="translate(65.796 -18046.383)"/>
  </g>
</svg>
