<svg xmlns="http://www.w3.org/2000/svg" width="254.744" height="71.561" viewBox="0 0 254.744 71.561">
  <g id="gravity-logo-white" transform="translate(-157.648 18079.001)">
    <g id="Group_640" data-name="Group 640" transform="translate(157.648 -18079)">
      <path id="Path_1600" data-name="Path 1600" d="M2.977-24.407H14.518v4.287a10.7,10.7,0,0,1,3.438-3.831A8.476,8.476,0,0,1,22.335-25a15.362,15.362,0,0,1,5.968,1.38l-3.817,7.148a11.526,11.526,0,0,0-3.454-.736,4.584,4.584,0,0,0-3.757,1.624Q15.367-13.3,15.367-7.014V1.757H2.977Zm39.716,8.475-11.784-1.01A9.731,9.731,0,0,1,32.832-20.9a10.324,10.324,0,0,1,3.62-2.5,17.731,17.731,0,0,1,4.665-1.183A46.079,46.079,0,0,1,47.54-25a62.551,62.551,0,0,1,8.906.5,12.758,12.758,0,0,1,5.6,2.1,7.444,7.444,0,0,1,2.484,3.148,9.506,9.506,0,0,1,.909,3.88V-3.814a11.418,11.418,0,0,0,.288,2.895,11.6,11.6,0,0,0,1.257,2.676H55.416a8.935,8.935,0,0,1-.909-1.54,9.606,9.606,0,0,1-.42-1.663,16.5,16.5,0,0,1-4.819,2.71,24.2,24.2,0,0,1-7.6,1.085q-5.761,0-8.74-2.168a6.426,6.426,0,0,1-2.984-5.346,6.282,6.282,0,0,1,2.151-4.9q2.151-1.921,7.937-2.858,6.937-1.133,9-1.589t4.362-1.2a3.115,3.115,0,0,0-.939-2.587,5.5,5.5,0,0,0-3.3-.736,10.182,10.182,0,0,0-4.544.788,4.425,4.425,0,0,0-1.909,2.314Zm10.694,5.272q-2.545.736-5.3,1.306a13.827,13.827,0,0,0-4.756,1.6A2.336,2.336,0,0,0,42.3-5.9a2.307,2.307,0,0,0,1.014,1.934,4.975,4.975,0,0,0,2.984.752,9.08,9.08,0,0,0,3.832-.813,5.653,5.653,0,0,0,2.514-1.983,5.6,5.6,0,0,0,.742-3.043ZM68.14-24.407H80.964L87.211-7.826l6.476-16.58h12.442L92.453,1.757H81.521Zm41.989,0h12.33V1.757h-12.33Zm35.081-9.953v9.953H152v7.341h-6.786V-7.8a4.158,4.158,0,0,0,.394,2.207,2.448,2.448,0,0,0,2.12.841,16.3,16.3,0,0,0,3.817-.639l.909,6.922a48.984,48.984,0,0,1-8.543.813,17.885,17.885,0,0,1-6.786-.96,6.485,6.485,0,0,1-3.226-2.916,14.217,14.217,0,0,1-1.045-6.335v-9.2h-4.544v-7.341h4.544v-4.8Zm9.119,9.953h13.01l6.636,17.417,6.163-17.417h12.15L179.522,3.544q-2.18,4.788-4.451,6.464-3.21,2.367-9.781,2.367-2.665,0-8.237-.591l-.968-7a23.669,23.669,0,0,0,5.933.69,6.754,6.754,0,0,0,3.527-.814,6.226,6.226,0,0,0,2.283-2.907Z" transform="translate(62.458 36.084)" fill="#fff"/>
      <path id="Path_1599" data-name="Path 1599" d="M32.722-29.146a21.465,21.465,0,0,1,6.244-4.026c3.721-1.505,5-1.5,7.635-1.092s3.364.87,3.922,1.421a5.1,5.1,0,0,1,1.446,2.967,3.519,3.519,0,0,1-1.448,2.844,7.239,7.239,0,0,1-3.3,1.608,7.093,7.093,0,0,1-3.092-.241c-.721-.244-1.933-1.667-4.081-2.01s-3.325-.162-4.51.641c2.721,2.634,5.541,5.31,5.7,11A15.29,15.29,0,0,1,34.25-3.436C29.152.117,22.562,1.616,17.655,1.878S7.87,2.035,3.519.579C-.309,1.42-1.549,2.471-1.947,2.856A2.4,2.4,0,0,0-2.912,4.6c0,1.021.96,1.939,2.278,2.608,1.67.876,9.2,1.211,14.122,1.807L29.2,11.029c4.218.526,8.131,1.023,11.878,2.722s5.292,3.816,5.958,5.159a10.916,10.916,0,0,1,1.231,5.917c-.219,2.587-4.613,6.894-9.633,8.928s-11.749,3.309-25.147,3.309A73.746,73.746,0,0,1-1.944,35.546a75.846,75.846,0,0,1-8.492-2.2s-4.606-1.73-5.739-4.769a7.138,7.138,0,0,1,1.206-7.638c1.779-2.072,8.709-4.823,16.914-6.968-4.171-.841-7.478-1.82-9.277-2.943a8.282,8.282,0,0,1-3.1-3.427,5.855,5.855,0,0,1-.24-1.975A3.494,3.494,0,0,1-9.117,2.856,8.9,8.9,0,0,1-5.252,1.1C-3.793.7-.49-.071.2-.292-3.011-2.116-8.281-6.284-9.907-8.55a12.47,12.47,0,0,1-2.44-7.442q0-6.68,6.46-11.675,7.845-6.1,21.161-6.1a40.192,40.192,0,0,1,10.349,1.185,33.4,33.4,0,0,1,7.1,3.433Zm-17.914-.729A19.52,19.52,0,0,0,2.872-25.867c-2.99,2.488-4.287,7.2-4.351,9.845A15.1,15.1,0,0,0,.2-9.236C1-7.591,3.171-4.569,5.635-3.431a26.1,26.1,0,0,0,9.3,2.078,21.96,21.96,0,0,0,8.525-2.078A13.34,13.34,0,0,0,29.2-9.237a17.629,17.629,0,0,0,1.659-6.786,13.13,13.13,0,0,0-4.277-9.845C22.687-29.363,19.425-29.875,14.808-29.875ZM7.135,14.775c-5.225,1.453-13.083,5.449-14.468,7.24a5.762,5.762,0,0,0,0,6.565c1.348,2.207,5.389,3.069,5.389,3.069s2.928.776,6.5,1.366a60.756,60.756,0,0,0,10.722.741,53.992,53.992,0,0,0,13.181-1.486,27.568,27.568,0,0,0,7.09-2.486c2.108-1.127,2.568-1.465,3.424-2.943a3.879,3.879,0,0,0,0-3.621c-.326-.939-1.691-2.72-4.715-4.1S28.31,17.545,25.629,17.2Z" transform="translate(16.784 34.494)" fill="#fff"/>
      <path id="Path_1603" data-name="Path 1603" d="M6.307,0c3.483,0,6.307,1.883,6.307,4.2s-2.823,4.2-6.307,4.2S0,6.526,0,4.2,2.823,0,6.307,0Z" transform="translate(172.675 1.051)" fill="#ea1874"/>
      <path id="Path_1602" data-name="Path 1602" d="M0,0H150.312" transform="translate(65.985 46.776)" fill="none" stroke="#e3216f" stroke-width="2"/>
      <path id="Path_1601" data-name="Path 1601" d="M6.831-9.4a6.832,6.832,0,0,1,4.653,1.358,4.462,4.462,0,0,1,1.787,3.614,4.6,4.6,0,0,1-1.335,3.259A6.544,6.544,0,0,1,6.945.709a6.734,6.734,0,0,1-5-1.787,4.585,4.585,0,0,1-1.4-3.336A4.449,4.449,0,0,1,2.363-8.029,6.58,6.58,0,0,1,6.831-9.4Zm.105.46a2.774,2.774,0,0,0-2.5,1.366,6.122,6.122,0,0,0-.7,3.219A5.368,5.368,0,0,0,4.816-.664a2.687,2.687,0,0,0,2.1.834A2.953,2.953,0,0,0,8.439-.19,3.014,3.014,0,0,0,9.65-1.662a6.757,6.757,0,0,0,.433-2.633,7.235,7.235,0,0,0-.44-2.893A2.886,2.886,0,0,0,8.515-8.539a3.1,3.1,0,0,0-1.578-.4Zm11.6,2.7V-4.71a5.382,5.382,0,0,1,1.441-1.383,2.469,2.469,0,0,1,1.193-.342,1.192,1.192,0,0,1,.792.248.863.863,0,0,1,.3.7.968.968,0,0,1-.287.747.985.985,0,0,1-.694.266,1.366,1.366,0,0,1-.814-.244q-.345-.244-.407-.273a.458.458,0,0,0-.2-.043.841.841,0,0,0-.486.158,1.5,1.5,0,0,0-.548.7,4.053,4.053,0,0,0-.283,1.538v1.549l.008.4a1.366,1.366,0,0,0,.062.526.631.631,0,0,0,.315.284,2.184,2.184,0,0,0,.7.111V.486H15.161V.227a1.093,1.093,0,0,0,.729-.241,1.868,1.868,0,0,0,.19-1.077V-4.81a2.283,2.283,0,0,0-.07-.736.6.6,0,0,0-.256-.294,1.608,1.608,0,0,0-.592-.129v-.266Zm7.173-3.259a1.481,1.481,0,0,1,.972.327.987.987,0,0,1,.4.787.974.974,0,0,1-.4.783,1.5,1.5,0,0,1-.968.324,1.478,1.478,0,0,1-.964-.324.978.978,0,0,1-.4-.783.987.987,0,0,1,.4-.787,1.472,1.472,0,0,1,.966-.323Zm1.237,3.259V-.909a1.357,1.357,0,0,0,.2.909,1.261,1.261,0,0,0,.8.226v.26H23.483V.227A1.217,1.217,0,0,0,24.3-.031q.177-.165.177-.877V-4.832a1.357,1.357,0,0,0-.2-.909,1.241,1.241,0,0,0-.786-.226v-.266Zm9.382,3.119H31.8A3.086,3.086,0,0,0,32.67-1a2.023,2.023,0,0,0,1.472.6,1.949,1.949,0,0,0,.964-.241,3.353,3.353,0,0,0,.921-.865l.3.158A4.31,4.31,0,0,1,34.841.223a3.735,3.735,0,0,1-1.883.464A3.4,3.4,0,0,1,30.179-.46a3.507,3.507,0,0,1-.76-2.3,3.4,3.4,0,0,1,1.118-2.676,3.816,3.816,0,0,1,2.62-1,3.138,3.138,0,0,1,2.179.841,3.391,3.391,0,0,1,.993,2.475ZM34.155-3.6A5.427,5.427,0,0,0,34-5.184a1.288,1.288,0,0,0-.481-.654.85.85,0,0,0-.5-.129.918.918,0,0,0-.752.367,2.7,2.7,0,0,0-.526,1.753V-3.6Zm7.163-2.637v.869a4.8,4.8,0,0,1,1.225-.815A3.1,3.1,0,0,1,43.8-6.434a2.312,2.312,0,0,1,1.335.363,1.744,1.744,0,0,1,.707.9,5.692,5.692,0,0,1,.142,1.577V-.978a1.671,1.671,0,0,0,.172.966,1.131,1.131,0,0,0,.72.241V.486H42.689V.227a.925.925,0,0,0,.672-.315A1.715,1.715,0,0,0,43.5-.98V-3.969a3.994,3.994,0,0,0-.08-1.042.645.645,0,0,0-.269-.334.778.778,0,0,0-.42-.119,1.807,1.807,0,0,0-1.414.884v3.6a1.675,1.675,0,0,0,.172.955.961.961,0,0,0,.641.251V.486H37.952V.227a1.136,1.136,0,0,0,.742-.273,1.682,1.682,0,0,0,.15-.934V-4.77a1.615,1.615,0,0,0-.172-.946,1.172,1.172,0,0,0-.72-.244v-.266ZM51.868-8.69v2.458H53.83v.712H51.868v4.146a2.589,2.589,0,0,0,.066.751.557.557,0,0,0,.234.273.6.6,0,0,0,.309.105,1.4,1.4,0,0,0,1.087-.712l.265.158A2.43,2.43,0,0,1,51.5.579a2.378,2.378,0,0,1-1.33-.356,1.617,1.617,0,0,1-.695-.788,5.535,5.535,0,0,1-.088-1.322V-5.522H48.315v-.251a11.049,11.049,0,0,0,1.892-1.343,8.428,8.428,0,0,0,1.366-1.577Zm5.317-.8a1.481,1.481,0,0,1,.972.327.987.987,0,0,1,.4.787.974.974,0,0,1-.4.783,1.5,1.5,0,0,1-.968.324,1.478,1.478,0,0,1-.964-.324.978.978,0,0,1-.4-.783.987.987,0,0,1,.4-.787A1.472,1.472,0,0,1,57.184-9.488Zm1.237,3.259V-.9a1.357,1.357,0,0,0,.2.909,1.261,1.261,0,0,0,.8.226V.486H54.957V.227a1.217,1.217,0,0,0,.814-.259q.177-.165.177-.877V-4.832a1.357,1.357,0,0,0-.2-.909,1.241,1.241,0,0,0-.786-.226v-.266Zm5.758,0v.869A4.8,4.8,0,0,1,65.4-6.175a3.1,3.1,0,0,1,1.255-.255,2.312,2.312,0,0,1,1.335.363,1.744,1.744,0,0,1,.707.9,5.692,5.692,0,0,1,.142,1.577V-.974a1.671,1.671,0,0,0,.172.966,1.131,1.131,0,0,0,.72.241V.486H65.55V.227a.925.925,0,0,0,.672-.315,1.716,1.716,0,0,0,.142-.891V-3.969a3.994,3.994,0,0,0-.08-1.042.645.645,0,0,0-.269-.334.778.778,0,0,0-.42-.119,1.807,1.807,0,0,0-1.414.884v3.6a1.676,1.676,0,0,0,.172.955.961.961,0,0,0,.641.251V.486H60.813V.227a1.136,1.136,0,0,0,.742-.273,1.682,1.682,0,0,0,.15-.934V-4.77a1.615,1.615,0,0,0-.172-.946,1.172,1.172,0,0,0-.72-.244v-.266Zm12.573.079h2.784v.79H77.955a2.561,2.561,0,0,1,.6.639,1.67,1.67,0,0,1,.21.811,1.771,1.771,0,0,1-.485,1.241,3.266,3.266,0,0,1-1.335.826,4.571,4.571,0,0,1-1.5.3q-.053,0-1.061-.036a1.051,1.051,0,0,0-.667.21.631.631,0,0,0-.269.507.5.5,0,0,0,.243.42,1.447,1.447,0,0,0,.792.165l1.529-.015a6.706,6.706,0,0,1,2.554.33,1.5,1.5,0,0,1,.993,1.424,1.6,1.6,0,0,1-.459,1.11,2.716,2.716,0,0,1-1.211.736,8.906,8.906,0,0,1-2.628.352,10.836,10.836,0,0,1-2.029-.176A3.153,3.153,0,0,1,71.919,3a.862.862,0,0,1-.4-.657.77.77,0,0,1,.3-.593,2.711,2.711,0,0,1,1.135-.441q-1.15-.46-1.15-1.279a1.366,1.366,0,0,1,.469-.963,3.857,3.857,0,0,1,1.481-.813,3.758,3.758,0,0,1-1.714-.927,1.9,1.9,0,0,1-.526-1.33,2.085,2.085,0,0,1,.989-1.71,4.212,4.212,0,0,1,2.546-.722,5.551,5.551,0,0,1,1.7.285Zm-1.529.165a1.091,1.091,0,0,0-.866.42A2.922,2.922,0,0,0,74-3.824a2.288,2.288,0,0,0,.349,1.472,1.066,1.066,0,0,0,.826.4,1.136,1.136,0,0,0,.884-.4,2.4,2.4,0,0,0,.353-1.538,2.806,2.806,0,0,0-.4-1.753.971.971,0,0,0-.8-.345ZM74.7,1.478A3.7,3.7,0,0,0,73.5,1.6q-.5.223-.5.6t.526.664a4.393,4.393,0,0,0,1.962.3A5.626,5.626,0,0,0,77.42,2.9q.7-.266.7-.747a.394.394,0,0,0-.132-.3,1.4,1.4,0,0,0-.72-.294A23.23,23.23,0,0,0,74.7,1.477ZM92.2.217V.486H85.936V.22h.4a1.976,1.976,0,0,0,.841-.151.712.712,0,0,0,.357-.345,2.433,2.433,0,0,0,.1-.905V-7.593a2.628,2.628,0,0,0-.1-.934.812.812,0,0,0-.393-.327,1.892,1.892,0,0,0-.8-.14h-.4v-.264h6.266v.266h-.4a1.976,1.976,0,0,0-.841.151.752.752,0,0,0-.363.345,2.433,2.433,0,0,0-.1.905v6.412a2.523,2.523,0,0,0,.105.934.841.841,0,0,0,.4.327,1.892,1.892,0,0,0,.8.14Zm4.98-6.453v.869A4.8,4.8,0,0,1,98.4-6.183a3.1,3.1,0,0,1,1.255-.255,2.312,2.312,0,0,1,1.335.363,1.744,1.744,0,0,1,.707.9,5.692,5.692,0,0,1,.142,1.577V-.982a1.671,1.671,0,0,0,.172.966,1.131,1.131,0,0,0,.72.241V.486H98.553V.227a.925.925,0,0,0,.672-.315,1.716,1.716,0,0,0,.142-.891V-3.969a3.994,3.994,0,0,0-.08-1.042.645.645,0,0,0-.269-.334.778.778,0,0,0-.42-.119,1.807,1.807,0,0,0-1.414.884v3.6a1.675,1.675,0,0,0,.172.955A.961.961,0,0,0,98,.227V.486h-4.18V.227a1.136,1.136,0,0,0,.742-.273,1.682,1.682,0,0,0,.15-.934V-4.77a1.615,1.615,0,0,0-.172-.946,1.172,1.172,0,0,0-.72-.244v-.266Zm10.549-2.458v2.458h1.962v.712h-1.962v4.146a2.59,2.59,0,0,0,.066.751.557.557,0,0,0,.234.273.6.6,0,0,0,.309.105,1.4,1.4,0,0,0,1.087-.712l.265.158A2.43,2.43,0,0,1,107.37.579a2.378,2.378,0,0,1-1.33-.355,1.617,1.617,0,0,1-.694-.794,5.535,5.535,0,0,1-.088-1.322v-3.63h-1.078v-.251a11.049,11.049,0,0,0,1.892-1.343,8.428,8.428,0,0,0,1.366-1.577Zm10.327,5.571h-4.528A3.086,3.086,0,0,0,114.4-1.01a2.023,2.023,0,0,0,1.472.6,1.949,1.949,0,0,0,.963-.241,3.353,3.353,0,0,0,.928-.866l.3.158A4.31,4.31,0,0,1,116.579.213,3.735,3.735,0,0,1,114.7.677,3.4,3.4,0,0,1,111.908-.46a3.507,3.507,0,0,1-.76-2.3,3.4,3.4,0,0,1,1.118-2.676,3.816,3.816,0,0,1,2.62-1,3.138,3.138,0,0,1,2.179.841,3.391,3.391,0,0,1,.993,2.475ZM115.881-3.6a5.427,5.427,0,0,0-.155-1.588,1.288,1.288,0,0,0-.481-.654.85.85,0,0,0-.5-.129.918.918,0,0,0-.752.367,2.7,2.7,0,0,0-.526,1.753V-3.6ZM122.9-9.267V-.918a1.357,1.357,0,0,0,.2.909,1.261,1.261,0,0,0,.8.226V.486h-4.463V.227a1.217,1.217,0,0,0,.814-.259q.177-.165.177-.877V-7.864a1.341,1.341,0,0,0-.2-.9,1.241,1.241,0,0,0-.786-.226v-.267Zm5.608,0V-.918a1.357,1.357,0,0,0,.2.909,1.261,1.261,0,0,0,.8.226V.486h-4.463V.227a1.217,1.217,0,0,0,.814-.259q.177-.165.177-.877V-7.864a1.341,1.341,0,0,0-.2-.9,1.241,1.241,0,0,0-.786-.226v-.267Zm4.362-.23a1.481,1.481,0,0,1,.972.327.987.987,0,0,1,.4.787.974.974,0,0,1-.4.783,1.5,1.5,0,0,1-.968.324,1.478,1.478,0,0,1-.964-.324.978.978,0,0,1-.4-.783.987.987,0,0,1,.4-.787,1.472,1.472,0,0,1,.97-.317Zm1.237,3.259V-.914a1.356,1.356,0,0,0,.2.909,1.261,1.261,0,0,0,.8.226V.486h-4.463V.227a1.217,1.217,0,0,0,.814-.259q.177-.165.177-.877V-4.832a1.357,1.357,0,0,0-.2-.909,1.241,1.241,0,0,0-.786-.226v-.266Zm7.685.079h2.784v.79H143a2.561,2.561,0,0,1,.6.639,1.67,1.67,0,0,1,.21.811,1.771,1.771,0,0,1-.485,1.251,3.266,3.266,0,0,1-1.335.826,4.572,4.572,0,0,1-1.5.3q-.053,0-1.061-.036a1.051,1.051,0,0,0-.667.21.631.631,0,0,0-.269.507.5.5,0,0,0,.243.42,1.447,1.447,0,0,0,.792.165l1.529-.015a6.706,6.706,0,0,1,2.554.33,1.5,1.5,0,0,1,1,1.424,1.6,1.6,0,0,1-.459,1.11,2.716,2.716,0,0,1-1.211.736,8.906,8.906,0,0,1-2.628.352,10.836,10.836,0,0,1-2.033-.176A3.153,3.153,0,0,1,136.96,3a.862.862,0,0,1-.4-.657.77.77,0,0,1,.3-.593A2.711,2.711,0,0,1,138,1.306q-1.149-.46-1.149-1.279a1.366,1.366,0,0,1,.469-.963,3.857,3.857,0,0,1,1.485-.811,3.758,3.758,0,0,1-1.714-.927A1.9,1.9,0,0,1,136.568-4a2.085,2.085,0,0,1,.99-1.707,4.212,4.212,0,0,1,2.546-.722,5.551,5.551,0,0,1,1.7.281Zm-1.529.165a1.091,1.091,0,0,0-.866.42,2.922,2.922,0,0,0-.353,1.743A2.287,2.287,0,0,0,139.4-2.36a1.066,1.066,0,0,0,.826.4,1.136,1.136,0,0,0,.884-.4,2.4,2.4,0,0,0,.353-1.538,2.806,2.806,0,0,0-.4-1.753.971.971,0,0,0-.79-.341Zm-.526,7.463a3.7,3.7,0,0,0-1.193.122q-.5.223-.5.6t.526.664a4.393,4.393,0,0,0,1.962.3,5.626,5.626,0,0,0,1.931-.266q.7-.266.7-.747a.394.394,0,0,0-.132-.3,1.4,1.4,0,0,0-.72-.294,23.23,23.23,0,0,0-2.563-.07Zm13.382-4.583h-4.534A3.086,3.086,0,0,0,149.463-1a2.023,2.023,0,0,0,1.472.6,1.949,1.949,0,0,0,.964-.241,3.353,3.353,0,0,0,.928-.866l.3.158A4.31,4.31,0,0,1,151.642.222a3.735,3.735,0,0,1-1.884.465A3.4,3.4,0,0,1,146.975-.46a3.507,3.507,0,0,1-.76-2.3,3.4,3.4,0,0,1,1.118-2.676,3.816,3.816,0,0,1,2.62-1,3.138,3.138,0,0,1,2.179.841A3.39,3.39,0,0,1,153.122-3.114ZM150.949-3.6a5.427,5.427,0,0,0-.155-1.588,1.288,1.288,0,0,0-.481-.654.85.85,0,0,0-.5-.129.918.918,0,0,0-.752.367,2.7,2.7,0,0,0-.526,1.753V-3.6Zm7.163-2.637v.869a4.8,4.8,0,0,1,1.219-.816,3.1,3.1,0,0,1,1.255-.255,2.313,2.313,0,0,1,1.335.363,1.744,1.744,0,0,1,.707.9,5.691,5.691,0,0,1,.142,1.577V-.979a1.671,1.671,0,0,0,.172.966,1.131,1.131,0,0,0,.72.241V.486h-4.18V.227a.925.925,0,0,0,.672-.315A1.715,1.715,0,0,0,160.3-.98V-3.969a4,4,0,0,0-.08-1.042.645.645,0,0,0-.269-.334.778.778,0,0,0-.42-.119,1.807,1.807,0,0,0-1.414.884v3.6a1.676,1.676,0,0,0,.172.955.961.961,0,0,0,.641.251V.486h-4.18V.227a1.136,1.136,0,0,0,.742-.273,1.682,1.682,0,0,0,.15-.934V-4.77a1.614,1.614,0,0,0-.172-.946,1.172,1.172,0,0,0-.72-.244v-.266Zm14.014,4.987.274.172A3.712,3.712,0,0,1,170.95.252a4.089,4.089,0,0,1-1.85.434,3.527,3.527,0,0,1-2.643-1.013,3.364,3.364,0,0,1-.99-2.435,3.574,3.574,0,0,1,.9-2.418,3.752,3.752,0,0,1,3-1.261,3.515,3.515,0,0,1,2.037.526,1.458,1.458,0,0,1,.756,1.171.8.8,0,0,1-.3.654,1.24,1.24,0,0,1-.8.244,1.311,1.311,0,0,1-.862-.281,1.456,1.456,0,0,1-.42-1,.974.974,0,0,0-.256-.631.7.7,0,0,0-.477-.18.908.908,0,0,0-.724.367,2.617,2.617,0,0,0-.459,1.7,4.558,4.558,0,0,0,.371,1.814,2.812,2.812,0,0,0,1.016,1.29,2.1,2.1,0,0,0,1.149.309,2.08,2.08,0,0,0,.822-.165,3.726,3.726,0,0,0,.919-.619ZM181-3.114h-4.534A3.086,3.086,0,0,0,177.336-1a2.023,2.023,0,0,0,1.472.6,1.949,1.949,0,0,0,.964-.241,3.353,3.353,0,0,0,.928-.866l.3.158A4.31,4.31,0,0,1,179.515.222a3.735,3.735,0,0,1-1.883.464A3.4,3.4,0,0,1,174.848-.46a3.507,3.507,0,0,1-.76-2.3,3.4,3.4,0,0,1,1.118-2.676,3.816,3.816,0,0,1,2.62-1,3.138,3.138,0,0,1,2.179.841A3.391,3.391,0,0,1,181-3.114ZM178.822-3.6a5.427,5.427,0,0,0-.155-1.588,1.288,1.288,0,0,0-.481-.654.85.85,0,0,0-.5-.129.918.918,0,0,0-.752.367,2.7,2.7,0,0,0-.526,1.753V-3.6Z" transform="translate(68.485 59.429)" fill="#fff"/>
    </g>
  </g>
</svg>
