<svg xmlns="http://www.w3.org/2000/svg" width="28" height="26.001" viewBox="0 0 28 26.001"><g transform="translate(-36 -604)"><path d="M28,12H22V2a4,4,0,0,0-.535-2H25a3,3,0,0,1,3,3v9ZM6,12H0V3A3,3,0,0,1,3,0H6.535A4,4,0,0,0,6,2V12Z" transform="translate(36 618)" fill="#a4aa9d"/><path d="M4,0H8a4,4,0,0,1,4,4V14a0,0,0,0,1,0,0H0a0,0,0,0,1,0,0V4A4,4,0,0,1,4,0Z" transform="translate(44 616)" fill="#a4aa9d"/><circle cx="5" cy="5" r="5" transform="translate(45 604)" fill="#a4aa9d"/><circle cx="3" cy="3" r="3" transform="translate(39 611)" fill="#a4aa9d"/><circle cx="3" cy="3" r="3" transform="translate(55 611)" fill="#a4aa9d"/></g></svg>