<svg xmlns="http://www.w3.org/2000/svg" width="27" height="27.194" viewBox="0 0 27 27.194"><path d="M-1418.563-80.806V-86.87H-1424V-108h27v21.13h-15.268l-6.294,6.063Zm7.641-13.013a1.944,1.944,0,0,0-1.411.586,1.929,1.929,0,0,0-.59,1.417,1.891,1.891,0,0,0,.586,1.4,1.953,1.953,0,0,0,1.416.577,1.951,1.951,0,0,0,1.421-.577,1.9,1.9,0,0,0,.581-1.4,1.938,1.938,0,0,0-.586-1.417A1.937,1.937,0,0,0-1410.922-93.819Zm-1.611-5.283h0l-.01,3.965h3.281v-1.9a4.382,4.382,0,0,0,2.841-1.338,4.262,4.262,0,0,0,1-2.939,4.29,4.29,0,0,0-1.328-3.291,5.03,5.03,0,0,0-3.544-1.23,5.442,5.442,0,0,0-3.643,1.162,3.911,3.911,0,0,0-1.357,3.116v.127h3.115a1.724,1.724,0,0,1,.5-1.167,1.664,1.664,0,0,1,1.177-.415,1.675,1.675,0,0,1,1.24.463,1.715,1.715,0,0,1,.459,1.256,1.917,1.917,0,0,1-.777,1.66,3.991,3.991,0,0,1-2.319.557c-.168,0-.3,0-.391-.005s-.163-.007-.244-.014Z" transform="translate(1424 108)" fill="#a4aa9d"/></svg>