<svg xmlns="http://www.w3.org/2000/svg" xmlns:xlink="http://www.w3.org/1999/xlink" width="543" height="797" viewBox="0 0 543 797">
  <defs>
    <clipPath id="clip-path">
      <rect id="Rectangle_2" data-name="Rectangle 2" width="543" height="797" transform="translate(0 0.051)"/>
    </clipPath>
    <linearGradient id="linear-gradient" x1="0.126" y1="-0.095" x2="0.885" y2="1.09" gradientUnits="objectBoundingBox">
      <stop offset="0" stop-color="#ffeb00"/>
      <stop offset="0.498" stop-color="#ffc300"/>
      <stop offset="1" stop-color="#ff9300"/>
    </linearGradient>
    <linearGradient id="linear-gradient-2" x1="-0.132" y1="-0.381" x2="1.226" y2="1.635" gradientUnits="objectBoundingBox">
      <stop offset="0" stop-color="#8b8bf6"/>
      <stop offset="1" stop-color="#1111f2"/>
    </linearGradient>
    <linearGradient id="linear-gradient-3" x1="0.821" y1="0.5" x2="-0.033" y2="0.5" gradientUnits="objectBoundingBox">
      <stop offset="0" stop-color="#b6d741"/>
      <stop offset="1" stop-color="#fff" stop-opacity="0"/>
    </linearGradient>
    <linearGradient id="linear-gradient-4" x1="-0.051" y1="-0.299" x2="1.009" y2="1.094" xlink:href="#linear-gradient-2"/>
  </defs>
  <g id="hero-img-2" transform="translate(0 -0.051)" clip-path="url(#clip-path)">
    <path id="Path_1" data-name="Path 1" d="M0,0H542.759V797.051H0Z" fill="url(#linear-gradient)"/>
    <path id="Path_1-2" data-name="Path 1" d="M-11.969,0H552.661s35.623,92.084,0,114.943S489.238,91.377,415.612,91.377s-80.836,23.566-156.867,23.566-82.987-23.566-150.52-23.566S17.535,137.8-11.969,114.943-11.969,0-11.969,0Z" transform="translate(-0.583 -1.508)" fill="url(#linear-gradient-2)"/>
    <g id="gravity-logo" transform="translate(18.093 17.589)">
      <path id="Rectangle_125" data-name="Rectangle 125" d="M0,0H161.965a7.922,7.922,0,0,1,7.922,7.922V51.934a7.922,7.922,0,0,1-7.922,7.92H0Z" transform="translate(47.843 0.001)" fill="url(#linear-gradient-3)"/>
      <g id="Group_640" data-name="Group 640" transform="translate(0 0)">
        <path id="Path_1600" data-name="Path 1600" d="M2.977-26.025h9.665v3.59a8.962,8.962,0,0,1,2.879-3.208,7.1,7.1,0,0,1,3.669-.88,12.865,12.865,0,0,1,5,1.156l-3.2,5.985A9.652,9.652,0,0,0,18.1-20a3.839,3.839,0,0,0-3.15,1.36q-1.6,1.919-1.6,7.179v7.345H2.977Zm33.259,7.1-9.868-.846a8.149,8.149,0,0,1,1.611-3.311,8.644,8.644,0,0,1,3.031-2.094,14.848,14.848,0,0,1,3.906-.99,38.587,38.587,0,0,1,5.377-.352,52.382,52.382,0,0,1,7.458.423,10.683,10.683,0,0,1,4.693,1.759,6.232,6.232,0,0,1,2.08,2.636,7.961,7.961,0,0,1,.761,3.249V-8.78a9.562,9.562,0,0,0,.241,2.424,9.716,9.716,0,0,0,1.053,2.241h-9.69a7.482,7.482,0,0,1-.761-1.29A8.043,8.043,0,0,1,45.778-6.8a13.82,13.82,0,0,1-4.037,2.269,20.262,20.262,0,0,1-6.368.909q-4.825,0-7.319-1.816a5.381,5.381,0,0,1-2.5-4.477,5.26,5.26,0,0,1,1.8-4.105q1.8-1.608,6.647-2.393,5.812-.949,7.537-1.331t3.653-1a2.608,2.608,0,0,0-.786-2.167,4.607,4.607,0,0,0-2.764-.616,8.527,8.527,0,0,0-3.805.66,3.706,3.706,0,0,0-1.6,1.937Zm8.956,4.415q-2.131.616-4.44,1.093a11.579,11.579,0,0,0-3.983,1.341,1.956,1.956,0,0,0-.862,1.547,1.932,1.932,0,0,0,.849,1.62,4.166,4.166,0,0,0,2.5.629,7.6,7.6,0,0,0,3.209-.68,4.734,4.734,0,0,0,2.106-1.661,4.692,4.692,0,0,0,.622-2.549ZM57.546-26.025H68.285L73.517-12.14,78.94-26.024H89.359L77.906-4.113H68.751Zm35.162,0h10.325V-4.114H92.708Zm29.377-8.335v8.335h5.683v6.148h-5.683v7.76a3.482,3.482,0,0,0,.33,1.848,2.05,2.05,0,0,0,1.776.7,13.65,13.65,0,0,0,3.2-.535l.761,5.8a41.02,41.02,0,0,1-7.154.68,14.976,14.976,0,0,1-5.683-.8,5.43,5.43,0,0,1-2.7-2.442,11.906,11.906,0,0,1-.875-5.305v-7.7H107.93v-6.147h3.805v-4.02Zm7.636,8.335h10.895l5.557,14.586,5.161-14.586h10.175L150.82-2.619q-1.826,4.009-3.727,5.414-2.688,1.982-8.192,1.982-2.231,0-6.9-.495l-.811-5.859A19.822,19.822,0,0,0,136.162-1a5.656,5.656,0,0,0,2.953-.681,5.213,5.213,0,0,0,1.91-2.435Z" transform="translate(51.819 35.804)"/>
        <path id="Path_1599" data-name="Path 1599" d="M24.674-30.016A17.975,17.975,0,0,1,29.9-33.387c3.116-1.26,4.188-1.252,6.394-.915s2.814.729,3.284,1.19a4.272,4.272,0,0,1,1.211,2.485,2.947,2.947,0,0,1-1.213,2.382A6.062,6.062,0,0,1,36.816-26.9a5.94,5.94,0,0,1-2.59-.2c-.6-.2-1.619-1.4-3.417-1.683s-2.784-.136-3.777.537c2.279,2.206,4.64,4.447,4.774,9.214A12.8,12.8,0,0,1,25.953-8.486a27.974,27.974,0,0,1-13.9,4.451C7.945-3.815,3.864-3.9.219-5.123c-3.2.7-4.244,1.585-4.577,1.907a2.013,2.013,0,0,0-.808,1.462c0,.854.8,1.624,1.91,2.184,1.4.733,7.7,1.014,11.826,1.513L21.725,3.627c3.532.44,6.809.854,9.947,2.28a9.639,9.639,0,0,1,4.989,4.322,9.141,9.141,0,0,1,1.031,4.955c-.183,2.167-3.864,5.773-8.067,7.477s-9.839,2.771-21.057,2.771A61.756,61.756,0,0,1-4.356,24.159a63.516,63.516,0,0,1-7.112-1.84s-3.857-1.449-4.806-3.994a5.98,5.98,0,0,1,1.01-6.4C-13.776,10.2-7.972,7.892-1.1,6.1A26.273,26.273,0,0,1-8.869,3.633a6.935,6.935,0,0,1-2.6-2.87,4.9,4.9,0,0,1-.2-1.654,2.926,2.926,0,0,1,1.307-2.323A7.453,7.453,0,0,1-7.126-4.682C-5.9-5.019-3.139-5.665-2.563-5.85c-2.687-1.53-7.1-5.02-8.463-6.918A10.443,10.443,0,0,1-13.068-19q0-5.594,5.41-9.777,6.569-5.106,17.721-5.106a33.658,33.658,0,0,1,8.667.993A27.967,27.967,0,0,1,24.674-30.016Zm-15-.612A16.346,16.346,0,0,0-.323-27.27c-2.5,2.084-3.59,6.026-3.644,8.242a12.644,12.644,0,0,0,1.4,5.685A11.54,11.54,0,0,0,1.99-8.481a21.861,21.861,0,0,0,7.787,1.74,18.39,18.39,0,0,0,7.139-1.74,11.171,11.171,0,0,0,4.807-4.863,14.763,14.763,0,0,0,1.389-5.682,11,11,0,0,0-3.582-8.242C16.271-30.2,13.539-30.628,9.672-30.628ZM3.246,6.762C-1.129,7.979-7.709,11.326-8.869,12.826a4.825,4.825,0,0,0,0,5.5c1.128,1.848,4.513,2.57,4.513,2.57s2.452.652,5.441,1.146a50.879,50.879,0,0,0,8.979.621A45.214,45.214,0,0,0,21.1,21.416a23.086,23.086,0,0,0,5.937-2.082c1.765-.944,2.15-1.227,2.865-2.463a3.248,3.248,0,0,0,0-3.032c-.273-.786-1.416-2.278-3.949-3.433A23.368,23.368,0,0,0,18.732,8.8Z" transform="translate(16.783 34.495)"/>
        <path id="Path_1603" data-name="Path 1603" d="M5.281,0C8.2,0,10.563,1.577,10.563,3.521S8.2,7.042,5.281,7.042,0,5.465,0,3.521,2.362,0,5.281,0Z" transform="translate(144.601 0.881)" fill="#ea1874"/>
        <path id="Path_1602" data-name="Path 1602" d="M0,0H125.875" transform="translate(55.256 39.171)" fill="none" stroke="#e3216f" stroke-width="2"/>
        <path id="Path_1601" data-name="Path 1601" d="M5.809-9.413a5.722,5.722,0,0,1,3.9,1.137,3.736,3.736,0,0,1,1.5,3.026A3.852,3.852,0,0,1,10.085-2.52,5.48,5.48,0,0,1,5.906-.952a5.639,5.639,0,0,1-4.19-1.5A3.84,3.84,0,0,1,.547-5.242,3.726,3.726,0,0,1,2.068-8.268,5.511,5.511,0,0,1,5.809-9.413Zm.088.385A2.323,2.323,0,0,0,3.8-7.882a5.126,5.126,0,0,0-.583,2.7,4.5,4.5,0,0,0,.9,3.086,2.25,2.25,0,0,0,1.759.7,2.473,2.473,0,0,0,1.273-.3A2.524,2.524,0,0,0,8.17-2.937a5.658,5.658,0,0,0,.363-2.205,6.059,6.059,0,0,0-.369-2.422A2.417,2.417,0,0,0,7.219-8.7,2.6,2.6,0,0,0,5.9-9.027Zm9.714,2.261v1.276a4.507,4.507,0,0,1,1.206-1.158,2.068,2.068,0,0,1,1-.286,1,1,0,0,1,.663.208.723.723,0,0,1,.248.587.811.811,0,0,1-.24.626.825.825,0,0,1-.581.223,1.144,1.144,0,0,1-.681-.2q-.288-.2-.341-.229a.384.384,0,0,0-.17-.036.7.7,0,0,0-.407.132,1.256,1.256,0,0,0-.457.583,3.394,3.394,0,0,0-.237,1.288v1.3l.007.337a1.144,1.144,0,0,0,.05.44.528.528,0,0,0,.264.238,1.829,1.829,0,0,0,.588.093v.212H12.786v-.217a.916.916,0,0,0,.611-.2,1.564,1.564,0,0,0,.159-.9V-5.576a1.91,1.91,0,0,0-.059-.616.5.5,0,0,0-.215-.246,1.347,1.347,0,0,0-.5-.108v-.223Zm6.007-2.729a1.24,1.24,0,0,1,.814.274.827.827,0,0,1,.333.659.816.816,0,0,1-.337.653,1.252,1.252,0,0,1-.811.271,1.238,1.238,0,0,1-.807-.271.819.819,0,0,1-.333-.653.827.827,0,0,1,.333-.659,1.232,1.232,0,0,1,.809-.27Zm1.036,2.729v4.46a1.136,1.136,0,0,0,.17.761,1.055,1.055,0,0,0,.666.189v.218H19.754v-.217a1.019,1.019,0,0,0,.681-.217q.148-.138.148-.734V-5.591a1.136,1.136,0,0,0-.17-.761,1.04,1.04,0,0,0-.658-.189v-.223Zm7.857,2.613h-3.8a2.585,2.585,0,0,0,.732,1.769,1.7,1.7,0,0,0,1.232.5,1.632,1.632,0,0,0,.807-.2,2.808,2.808,0,0,0,.771-.726l.251.132a3.609,3.609,0,0,1-1.243,1.32,3.127,3.127,0,0,1-1.577.388,2.844,2.844,0,0,1-2.328-.96,2.936,2.936,0,0,1-.636-1.925A2.851,2.851,0,0,1,25.661-6.1a3.2,3.2,0,0,1,2.195-.834,2.627,2.627,0,0,1,1.825.7,2.84,2.84,0,0,1,.832,2.073Zm-1.82-.4a4.545,4.545,0,0,0-.129-1.33,1.078,1.078,0,0,0-.4-.547.712.712,0,0,0-.415-.108.768.768,0,0,0-.631.307,2.258,2.258,0,0,0-.44,1.468v.209Zm6-2.21v.728a4.02,4.02,0,0,1,1.026-.682,2.594,2.594,0,0,1,1.051-.214,1.936,1.936,0,0,1,1.118.3,1.46,1.46,0,0,1,.593.754A4.767,4.767,0,0,1,38.6-4.553v2.19a1.4,1.4,0,0,0,.144.809.947.947,0,0,0,.6.2v.215H35.838v-.216a.774.774,0,0,0,.562-.264,1.437,1.437,0,0,0,.119-.745V-4.868a3.345,3.345,0,0,0-.067-.872.54.54,0,0,0-.225-.28.653.653,0,0,0-.352-.1,1.513,1.513,0,0,0-1.185.743v3.015a1.4,1.4,0,0,0,.144.8.8.8,0,0,0,.537.211v.217h-3.5v-.219a.951.951,0,0,0,.622-.229,1.407,1.407,0,0,0,.126-.782V-5.539a1.352,1.352,0,0,0-.144-.794.981.981,0,0,0-.6-.2V-6.76Zm8.834-2.057v2.06h1.643v.594H43.524V-2.7a2.168,2.168,0,0,0,.055.629.466.466,0,0,0,.2.229.5.5,0,0,0,.259.088,1.172,1.172,0,0,0,.91-.6l.222.134A2.035,2.035,0,0,1,43.22-1.057a1.991,1.991,0,0,1-1.114-.3,1.354,1.354,0,0,1-.582-.66,4.635,4.635,0,0,1-.074-1.106V-6.169h-.9v-.211A9.253,9.253,0,0,0,42.135-7.5a7.058,7.058,0,0,0,1.144-1.32Zm4.452-.668a1.24,1.24,0,0,1,.814.274.827.827,0,0,1,.333.659.816.816,0,0,1-.337.653,1.252,1.252,0,0,1-.811.271,1.238,1.238,0,0,1-.807-.271.819.819,0,0,1-.333-.653.827.827,0,0,1,.333-.659,1.232,1.232,0,0,1,.809-.274Zm1.036,2.729V-2.3a1.136,1.136,0,0,0,.17.761,1.055,1.055,0,0,0,.666.189v.214H46.111v-.217a1.019,1.019,0,0,0,.681-.217q.148-.138.148-.734V-5.591a1.136,1.136,0,0,0-.17-.761,1.04,1.04,0,0,0-.658-.189v-.223Zm4.822,0v.729a4.02,4.02,0,0,1,1.021-.683,2.594,2.594,0,0,1,1.051-.214,1.936,1.936,0,0,1,1.118.3,1.46,1.46,0,0,1,.593.754,4.766,4.766,0,0,1,.119,1.32v2.19a1.4,1.4,0,0,0,.144.809.947.947,0,0,0,.6.2v.212h-3.5v-.214a.774.774,0,0,0,.562-.264,1.437,1.437,0,0,0,.12-.745V-4.868a3.345,3.345,0,0,0-.067-.872.54.54,0,0,0-.225-.28.653.653,0,0,0-.352-.1,1.513,1.513,0,0,0-1.185.743v3.015a1.4,1.4,0,0,0,.144.8.8.8,0,0,0,.537.211v.217h-3.5v-.219a.951.951,0,0,0,.622-.229,1.407,1.407,0,0,0,.126-.782V-5.539a1.352,1.352,0,0,0-.144-.794.981.981,0,0,0-.6-.2V-6.76Zm10.529.066h2.332v.663H65.37a2.145,2.145,0,0,1,.5.535,1.4,1.4,0,0,1,.176.679,1.483,1.483,0,0,1-.406,1.04,2.735,2.735,0,0,1-1.118.692,3.828,3.828,0,0,1-1.256.251q-.044,0-.888-.03a.88.88,0,0,0-.559.176.528.528,0,0,0-.225.424.415.415,0,0,0,.2.352,1.212,1.212,0,0,0,.663.138l1.281-.013a5.616,5.616,0,0,1,2.139.276,1.253,1.253,0,0,1,.832,1.193,1.341,1.341,0,0,1-.384.93,2.275,2.275,0,0,1-1.014.616,7.458,7.458,0,0,1-2.2.3,9.075,9.075,0,0,1-1.7-.147,2.641,2.641,0,0,1-1.1-.409.722.722,0,0,1-.333-.55.645.645,0,0,1,.255-.5,2.27,2.27,0,0,1,.951-.37q-.957-.387-.957-1.073a1.144,1.144,0,0,1,.392-.8,3.23,3.23,0,0,1,1.24-.68,3.147,3.147,0,0,1-1.436-.776,1.593,1.593,0,0,1-.44-1.114,1.746,1.746,0,0,1,.828-1.432,3.527,3.527,0,0,1,2.132-.6,4.649,4.649,0,0,1,1.421.239Zm-1.281.138a.914.914,0,0,0-.725.352,2.447,2.447,0,0,0-.3,1.457,1.916,1.916,0,0,0,.292,1.232.893.893,0,0,0,.692.334.951.951,0,0,0,.74-.334,2.01,2.01,0,0,0,.3-1.288,2.349,2.349,0,0,0-.333-1.468.813.813,0,0,0-.666-.289Zm-.44,6.25a3.1,3.1,0,0,0-1,.1q-.422.186-.422.505t.44.556a3.679,3.679,0,0,0,1.643.251,4.711,4.711,0,0,0,1.617-.22q.588-.223.588-.626A.33.33,0,0,0,65.4.009a1.17,1.17,0,0,0-.6-.246,19.454,19.454,0,0,0-2.149-.069ZM77.3-1.362v.225H72.054v-.224h.333a1.655,1.655,0,0,0,.7-.127.6.6,0,0,0,.3-.289,2.038,2.038,0,0,0,.081-.758V-7.9a2.2,2.2,0,0,0-.081-.782.68.68,0,0,0-.329-.274,1.585,1.585,0,0,0-.67-.117H72.06V-9.3h5.247v.223h-.333a1.655,1.655,0,0,0-.7.127.629.629,0,0,0-.3.289,2.038,2.038,0,0,0-.081.758v5.37a2.111,2.111,0,0,0,.088.782.7.7,0,0,0,.333.274,1.585,1.585,0,0,0,.67.117Zm4.171-5.4v.728a4.021,4.021,0,0,1,1.022-.684,2.594,2.594,0,0,1,1.051-.214,1.936,1.936,0,0,1,1.118.3,1.46,1.46,0,0,1,.593.754,4.765,4.765,0,0,1,.119,1.32v2.194a1.4,1.4,0,0,0,.144.809.947.947,0,0,0,.6.2v.218h-3.5v-.216a.774.774,0,0,0,.562-.264,1.437,1.437,0,0,0,.119-.746v-2.5a3.345,3.345,0,0,0-.067-.872.54.54,0,0,0-.225-.28.653.653,0,0,0-.352-.1,1.513,1.513,0,0,0-1.185.743v3.015a1.4,1.4,0,0,0,.144.8.8.8,0,0,0,.537.211v.217h-3.5v-.219a.951.951,0,0,0,.622-.229,1.407,1.407,0,0,0,.126-.782V-5.539a1.352,1.352,0,0,0-.144-.792.981.981,0,0,0-.6-.2v-.223ZM90.3-8.827v2.06h1.643v.6H90.3V-2.7a2.169,2.169,0,0,0,.055.629.466.466,0,0,0,.2.229.5.5,0,0,0,.259.088,1.172,1.172,0,0,0,.91-.6l.222.132A2.035,2.035,0,0,1,90-1.06a1.991,1.991,0,0,1-1.114-.3,1.354,1.354,0,0,1-.581-.664,4.635,4.635,0,0,1-.074-1.106V-6.169h-.9v-.211A9.252,9.252,0,0,0,88.913-7.5a7.057,7.057,0,0,0,1.144-1.32ZM98.95-4.161H95.158a2.585,2.585,0,0,0,.732,1.769,1.7,1.7,0,0,0,1.232.5,1.632,1.632,0,0,0,.8-.2,2.808,2.808,0,0,0,.777-.725l.251.132a3.609,3.609,0,0,1-1.244,1.32,3.127,3.127,0,0,1-1.576.388A2.844,2.844,0,0,1,93.8-1.934a2.936,2.936,0,0,1-.636-1.925A2.851,2.851,0,0,1,94.1-6.1,3.2,3.2,0,0,1,96.3-6.933a2.627,2.627,0,0,1,1.825.7,2.84,2.84,0,0,1,.832,2.073Zm-1.82-.4A4.545,4.545,0,0,0,97-5.894a1.078,1.078,0,0,0-.4-.547.712.712,0,0,0-.415-.108.768.768,0,0,0-.629.307,2.258,2.258,0,0,0-.441,1.466v.213Zm5.88-4.742v6.993a1.136,1.136,0,0,0,.17.761,1.055,1.055,0,0,0,.666.189v.225h-3.736v-.217a1.019,1.019,0,0,0,.681-.217q.148-.138.148-.734V-8.13a1.123,1.123,0,0,0-.17-.754,1.039,1.039,0,0,0-.658-.189V-9.3Zm4.7,0v6.993a1.136,1.136,0,0,0,.17.761,1.055,1.055,0,0,0,.666.189v.225H104.8v-.217a1.019,1.019,0,0,0,.681-.217q.148-.138.148-.734V-8.13a1.123,1.123,0,0,0-.17-.754,1.04,1.04,0,0,0-.658-.189V-9.3Zm3.653-.193a1.24,1.24,0,0,1,.814.274.827.827,0,0,1,.333.659.816.816,0,0,1-.337.653,1.252,1.252,0,0,1-.811.271,1.238,1.238,0,0,1-.807-.271.819.819,0,0,1-.333-.653.827.827,0,0,1,.333-.659,1.232,1.232,0,0,1,.813-.266Zm1.036,2.729v4.457a1.135,1.135,0,0,0,.17.761,1.055,1.055,0,0,0,.666.189v.222h-3.737v-.214a1.019,1.019,0,0,0,.681-.217q.148-.138.148-.734V-5.591a1.136,1.136,0,0,0-.17-.761,1.04,1.04,0,0,0-.658-.189v-.223Zm6.436.066h2.332v.662h-1.325a2.145,2.145,0,0,1,.5.535,1.4,1.4,0,0,1,.178.681,1.483,1.483,0,0,1-.406,1.047,2.735,2.735,0,0,1-1.118.692,3.828,3.828,0,0,1-1.256.251q-.044,0-.888-.03a.88.88,0,0,0-.559.176.528.528,0,0,0-.225.424.415.415,0,0,0,.2.352,1.212,1.212,0,0,0,.663.138l1.281-.013a5.616,5.616,0,0,1,2.139.276,1.253,1.253,0,0,1,.836,1.192,1.341,1.341,0,0,1-.384.93,2.275,2.275,0,0,1-1.014.616,7.458,7.458,0,0,1-2.2.295,9.075,9.075,0,0,1-1.7-.147,2.641,2.641,0,0,1-1.1-.409.722.722,0,0,1-.333-.55.645.645,0,0,1,.255-.5,2.27,2.27,0,0,1,.951-.37q-.962-.385-.962-1.071a1.144,1.144,0,0,1,.392-.8,3.23,3.23,0,0,1,1.244-.679,3.147,3.147,0,0,1-1.436-.776,1.593,1.593,0,0,1-.441-1.116,1.746,1.746,0,0,1,.829-1.429,3.527,3.527,0,0,1,2.132-.6,4.649,4.649,0,0,1,1.421.235Zm-1.281.138a.914.914,0,0,0-.725.352,2.447,2.447,0,0,0-.3,1.457,1.915,1.915,0,0,0,.292,1.232.893.893,0,0,0,.692.334.951.951,0,0,0,.74-.331,2.01,2.01,0,0,0,.3-1.288,2.349,2.349,0,0,0-.333-1.468.813.813,0,0,0-.662-.285Zm-.439,6.251a3.1,3.1,0,0,0-1,.1q-.422.186-.422.505t.44.556a3.679,3.679,0,0,0,1.643.251,4.711,4.711,0,0,0,1.617-.223q.589-.224.589-.626A.33.33,0,0,0,119.869,0a1.17,1.17,0,0,0-.6-.246,19.453,19.453,0,0,0-2.146-.059Zm11.207-3.838h-3.8a2.584,2.584,0,0,0,.732,1.769,1.7,1.7,0,0,0,1.232.5,1.632,1.632,0,0,0,.807-.2,2.808,2.808,0,0,0,.778-.726l.251.132a3.609,3.609,0,0,1-1.245,1.321,3.127,3.127,0,0,1-1.578.389,2.844,2.844,0,0,1-2.331-.96,2.936,2.936,0,0,1-.636-1.925A2.851,2.851,0,0,1,123.47-6.1a3.2,3.2,0,0,1,2.195-.834,2.627,2.627,0,0,1,1.825.7,2.839,2.839,0,0,1,.828,2.073Zm-1.82-.4a4.545,4.545,0,0,0-.129-1.33,1.078,1.078,0,0,0-.4-.547.712.712,0,0,0-.415-.108.768.768,0,0,0-.632.308,2.258,2.258,0,0,0-.44,1.468v.209Zm6-2.21v.728a4.02,4.02,0,0,1,1.021-.683,2.594,2.594,0,0,1,1.051-.214,1.936,1.936,0,0,1,1.118.3,1.46,1.46,0,0,1,.593.754,4.766,4.766,0,0,1,.121,1.324v2.191a1.4,1.4,0,0,0,.144.809.947.947,0,0,0,.6.2v.216h-3.5v-.217a.774.774,0,0,0,.562-.264,1.436,1.436,0,0,0,.119-.746v-2.5a3.346,3.346,0,0,0-.067-.872.54.54,0,0,0-.225-.28.653.653,0,0,0-.352-.1,1.513,1.513,0,0,0-1.187.743v3.015a1.4,1.4,0,0,0,.144.8.8.8,0,0,0,.537.211v.217h-3.5v-.219a.951.951,0,0,0,.622-.229,1.407,1.407,0,0,0,.126-.782V-5.539a1.352,1.352,0,0,0-.144-.792.981.981,0,0,0-.6-.2v-.223ZM144.23-2.589l.23.144a3.108,3.108,0,0,1-1.215,1.111,3.424,3.424,0,0,1-1.549.363,2.953,2.953,0,0,1-2.211-.848,2.817,2.817,0,0,1-.829-2.039,2.993,2.993,0,0,1,.754-2.025,3.142,3.142,0,0,1,2.509-1.055,2.943,2.943,0,0,1,1.706.44,1.221,1.221,0,0,1,.633.98.665.665,0,0,1-.254.547,1.039,1.039,0,0,1-.67.2A1.1,1.1,0,0,1,142.61-5a1.219,1.219,0,0,1-.352-.836.816.816,0,0,0-.215-.528.585.585,0,0,0-.4-.151.76.76,0,0,0-.607.307,2.192,2.192,0,0,0-.384,1.42,3.819,3.819,0,0,0,.311,1.519,2.355,2.355,0,0,0,.851,1.08,1.755,1.755,0,0,0,.962.259,1.742,1.742,0,0,0,.689-.138,3.121,3.121,0,0,0,.769-.519Zm7.428-1.564h-3.8a2.585,2.585,0,0,0,.732,1.769,1.7,1.7,0,0,0,1.232.5,1.632,1.632,0,0,0,.807-.2,2.808,2.808,0,0,0,.777-.725l.251.132a3.609,3.609,0,0,1-1.243,1.32,3.127,3.127,0,0,1-1.577.388,2.844,2.844,0,0,1-2.332-.959,2.936,2.936,0,0,1-.636-1.925,2.851,2.851,0,0,1,.937-2.241,3.2,3.2,0,0,1,2.195-.834,2.627,2.627,0,0,1,1.825.7,2.839,2.839,0,0,1,.832,2.073Zm-1.82-.4a4.545,4.545,0,0,0-.129-1.33,1.079,1.079,0,0,0-.4-.547.712.712,0,0,0-.415-.108.768.768,0,0,0-.63.308,2.258,2.258,0,0,0-.44,1.466v.211Z" transform="translate(57.261 51.312)" fill="#333"/>
      </g>
    </g>
    <text id="Outstanding_Team_Outstanding_Results" data-name="Outstanding Team Outstanding Results" transform="translate(269 40.051)" fill="#fee" font-size="27" font-family="SegoeUI-Bold, Segoe UI" font-weight="700"><tspan x="0" y="0">Outstanding Team</tspan><tspan x="0" y="36">Outstanding Results</tspan></text>
    <text id="students_above_99_percentile." data-name="students above 99 percentile." transform="translate(78 349.051)" fill="#fff" font-size="27" font-family="Arial-BoldMT, Arial" font-weight="700"><tspan x="0" y="0">students above 99 percentile.</tspan></text>
    <text id="JEE_MAIN_-_2021" data-name="JEE MAIN - 2021" transform="translate(106 152.051)" fill="blue" font-size="42" font-family="Arial-BoldMT, Arial" font-weight="700"><tspan x="0" y="0">JEE MAIN - 2021</tspan></text>
    <text id="_174_" data-name="174+" transform="translate(156 317.051)" fill="blue" font-size="86" font-family="Arial-Black, Arial" font-weight="800"><tspan x="0" y="0">174+</tspan></text>
    <g id="Group_1" data-name="Group 1" transform="translate(35.322 163.833)">
      <text id="_6" data-name="6" transform="translate(94.037 34)" fill="#fff" font-size="38" font-family="Arial-BoldMT, Arial" font-weight="700"><tspan x="0" y="0">6</tspan></text>
      <text id="th" transform="translate(115.145 33)" fill="#fff" font-size="21.582" font-family="Arial-BoldMT, Arial" font-weight="700" baseline-shift="12.332099951173968"><tspan x="0" y="0">th</tspan></text>
      <text id="_Year_in_a_row" data-name=" Year in a row" transform="translate(135.749 33)" fill="#fff" font-size="37" font-family="Arial-BoldMT, Arial" font-weight="700"><tspan x="0" y="0" xml:space="preserve"> Year in a row</tspan></text>
      <text id="Once_again_outstanding_performance" data-name="Once again outstanding performance" transform="translate(0 66.22)" fill="#fff" font-size="25" font-family="Arial-BoldMT, Arial" font-weight="700"><tspan x="0" y="0">Once again outstanding performance</tspan></text>
    </g>
    <g id="Group_2" data-name="Group 2" transform="translate(111.064 687.494)">
      <text id="Congratulations_to_All_Students_" data-name="Congratulations to All Students &amp;" transform="translate(-0.065 17.557)" fill="#fff" font-size="20" font-family="Arial-BoldMT, Arial" font-weight="700"><tspan x="0" y="0">Congratulations to All Students &amp;</tspan></text>
      <text id="Faculties_for_this_Great_Result" data-name="Faculties for this Great Result" transform="translate(17.936 42.557)" fill="#fff" font-size="20" font-family="Arial-BoldMT, Arial" font-weight="700"><tspan x="0" y="0">Faculties for this Great Result</tspan></text>
    </g>
    <g id="Group_7" data-name="Group 7" transform="translate(121.618 374.906)">
      <text id="_15_Students_under_1000_Rank_in_General_Category." data-name="15 Students under 1000 Rank in General Category." transform="translate(19.382 18.146)" fill="#fff" font-size="20" font-family="Arial-BoldMT, Arial" font-weight="700"><tspan x="0" y="0">15 Students under 1000 Rank</tspan><tspan x="0" y="29">in General Category.</tspan></text>
      <circle id="Ellipse_1" data-name="Ellipse 1" cx="6.5" cy="6.5" r="6.5" transform="translate(0.382 4.146)" fill="blue"/>
    </g>
    <g id="Group_7-2" data-name="Group 7" transform="translate(121.618 435.212)">
      <text id="_15_Students_under_1000_Rank_in_General_Category.-2" data-name="15 Students under 1000 Rank in General Category." transform="translate(19.382 17.839)" fill="#fff" font-size="20" font-family="Arial-BoldMT, Arial" font-weight="700"><tspan x="0" y="0">Highest Selection Percentage</tspan><tspan x="0" y="29">in Country.</tspan></text>
      <circle id="Ellipse_1-2" data-name="Ellipse 1" cx="6.5" cy="6.5" r="6.5" transform="translate(0.382 4.839)" fill="blue"/>
    </g>
    <path id="Path_2" data-name="Path 2" d="M0-13.571S53.924-50.963,124.777-50.963s85.266,37.393,158.635,37.393S378.345-48.98,443.181-50.963,542.759-21.5,542.759-21.5V7.716H0Z" transform="translate(0 789.305)" fill="url(#linear-gradient-4)"/>
    <text id="www.gravityclasses.org" transform="translate(333 786.051)" fill="#fee" font-size="17" font-family="Arial-BoldMT, Arial" font-weight="700"><tspan x="0" y="0">www.gravityclasses.org</tspan></text>
    <g id="Group_9" data-name="Group 9" transform="translate(35.138 493.508)">
      <text id="Nidhish" transform="translate(207.862 28.543)" fill="blue" font-size="27" font-family="SegoeUI-Bold, Segoe UI" font-weight="700"><tspan x="0" y="0">Nidhish</tspan></text>
      <text id="_99.9935_" data-name="99.9935%" transform="translate(219.862 53.543)" fill="#fff" font-size="16" font-family="SegoeUI-Bold, Segoe UI" font-weight="700"><tspan x="0" y="0">99.9935%</tspan></text>
      <text id="AIR_-_114" data-name="AIR - 114" transform="translate(221.862 74.543)" fill="#fff" font-size="16" font-family="SegoeUI-Bold, Segoe UI" font-weight="700"><tspan x="0" y="0">AIR - 114</tspan></text>
      <text id="Anirudh" transform="translate(367.862 28.543)" fill="blue" font-size="27" font-family="SegoeUI-Bold, Segoe UI" font-weight="700"><tspan x="0" y="0">Anirudh</tspan></text>
      <text id="_99.982_" data-name="99.982%" transform="translate(386.862 53.543)" fill="#fff" font-size="16" font-family="SegoeUI-Bold, Segoe UI" font-weight="700"><tspan x="0" y="0">99.982%</tspan></text>
      <text id="AIR_-_256" data-name="AIR - 256" transform="translate(383.862 74.543)" fill="#fff" font-size="16" font-family="SegoeUI-Bold, Segoe UI" font-weight="700"><tspan x="0" y="0">AIR - 256</tspan></text>
      <text id="Ayush" transform="translate(384.862 121.543)" fill="blue" font-size="27" font-family="SegoeUI-Bold, Segoe UI" font-weight="700"><tspan x="0" y="0">Ayush</tspan></text>
      <text id="_99.9784_" data-name="99.9784%" transform="translate(386.862 146.543)" fill="#fff" font-size="16" font-family="SegoeUI-Bold, Segoe UI" font-weight="700"><tspan x="0" y="0">99.9784%</tspan></text>
      <text id="AIR_-_313" data-name="AIR - 313" transform="translate(387.862 167.543)" fill="#fff" font-size="16" font-family="SegoeUI-Bold, Segoe UI" font-weight="700"><tspan x="0" y="0">AIR - 313</tspan></text>
      <text id="Dhruv" transform="translate(219.862 122.543)" fill="blue" font-size="27" font-family="SegoeUI-Bold, Segoe UI" font-weight="700"><tspan x="0" y="0">Dhruv</tspan></text>
      <text id="_99.9787_" data-name="99.9787%" transform="translate(221.862 145.543)" fill="#fff" font-size="16" font-family="SegoeUI-Bold, Segoe UI" font-weight="700"><tspan x="0" y="0">99.9787%</tspan></text>
      <text id="AIR_-_309" data-name="AIR - 309" transform="translate(223.862 166.543)" fill="#fff" font-size="16" font-family="SegoeUI-Bold, Segoe UI" font-weight="700"><tspan x="0" y="0">AIR - 309</tspan></text>
      <g id="Group_3" data-name="Group 3" transform="translate(0 8.041)">
        <text id="Top_" data-name="Top " transform="translate(27.168 62)" fill="blue" font-size="56" font-family="Arial-Black, Arial" font-weight="800"><tspan x="0" y="0">Top </tspan></text>
        <text id="Ranks" transform="translate(0 126.83)" fill="blue" font-size="56" font-family="Arial-Black, Arial" font-weight="800"><tspan x="0" y="0">Ranks</tspan></text>
      </g>
    </g>
  </g>
</svg>
