<svg xmlns="http://www.w3.org/2000/svg" width="91.747" height="111.472" viewBox="0 0 91.747 111.472">
  <path id="ignite" d="M42.049,113.4C34.619,97.941,31.49,91.1,34.184,80.737a52.035,52.035,0,0,0,7.864-18.187S46.964,68.941,45,78.935c8.684-9.667,10.322-25.068,9.012-30.966C73.638,61.686,74.436,91.387,63.131,113.4c60.131-34.022,22.548-84.929,14.683-90.663,2.622,5.734,3.119,15.442-2.177,20.153C66.672,8.9,44.507,1.928,44.507,1.928c2.622,17.531-9.5,36.7-21.194,51.025-.411-6.99-.847-11.814-4.523-18.5C17.964,47.149,8.259,57.5,5.631,70.224,2.071,87.455,10.779,106.328,42.049,113.4Z" transform="translate(-4.885 -1.928)" fill="#e48c08"/>
</svg>
