<svg xmlns="http://www.w3.org/2000/svg" width="108.805" height="113" viewBox="0 0 108.805 113">
  <g id="impulse" transform="translate(-1329 -5054.216)">
    <ellipse id="Ellipse_153" data-name="Ellipse 153" cx="21.766" cy="19" rx="21.766" ry="19" transform="translate(1361.811 5054.216)" fill="#0096ce"/>
    <path id="Path_384" data-name="Path 384" d="M184.53,181.515a32.629,32.629,0,0,1-31.609,0,45.79,45.79,0,0,0-13.76,7.337l29.564,9.678,29.564-9.678A45.785,45.785,0,0,0,184.53,181.515Z" transform="translate(1214.677 4912.703)" fill="#0096ce"/>
    <path id="Path_385" data-name="Path 385" d="M417.326,310H414.8a3.579,3.579,0,0,0-3.8,3.313v8.835a3.579,3.579,0,0,0,3.8,3.313h2.53c4.891,0,8.856-3.461,8.856-7.731S422.217,310,417.326,310Z" transform="translate(1011.623 4812.598)" fill="#0096ce"/>
    <path id="Path_386" data-name="Path 386" d="M82.634,232.194A3.214,3.214,0,0,0,81,234.917v7.376h1.265c6.279,0,11.387,4.459,11.387,9.94v8.835c0,5.481-5.108,9.94-11.387,9.94H81v6.981a3.363,3.363,0,0,0,2.463,3.1l38.023,12.447V243.389L86.128,231.815A4.264,4.264,0,0,0,82.634,232.194Z" transform="translate(1258.122 4873.678)" fill="#0096ce"/>
    <path id="Path_387" data-name="Path 387" d="M298.834,261.068v-8.835c0-5.481,5.108-9.94,11.387-9.94h1.265v-7.376a3.214,3.214,0,0,0-1.634-2.723,4.265,4.265,0,0,0-3.495-.379L271,243.389v50.149l38.023-12.447a3.363,3.363,0,0,0,2.463-3.1v-6.981H310.22C303.942,271.008,298.834,266.549,298.834,261.068Z" transform="translate(1116.198 4873.678)" fill="#0096ce"/>
    <path id="Path_388" data-name="Path 388" d="M56.182,322.148v-8.835a3.579,3.579,0,0,0-3.8-3.313h-2.53C44.965,310,41,313.461,41,317.731s3.965,7.731,8.856,7.731h2.53A3.579,3.579,0,0,0,56.182,322.148Z" transform="translate(1288 4812.598)" fill="#0096ce"/>
  </g>
</svg>
