<svg id="kindle" xmlns="http://www.w3.org/2000/svg" width="97.357" height="109.04" viewBox="0 0 97.357 109.04">
  <path id="Path_378" data-name="Path 378" d="M96,243.939h42.837V168H96Zm25.313-5.841h-3.894V234.2h3.894Zm13.63,0h-9.736V234.2h9.736ZM99.894,185.524a1.947,1.947,0,0,1,1.947-1.947H133a1.947,1.947,0,0,1,1.947,1.947V205A1.947,1.947,0,0,1,133,206.943H101.841A1.947,1.947,0,0,1,99.894,205Z" transform="translate(-86.264 -134.898)" fill="#783acb"/>
  <path id="Path_379" data-name="Path 379" d="M56,168.487v74.965a.487.487,0,0,0,.487.487h5.355V168H56.487A.487.487,0,0,0,56,168.487Z" transform="translate(-56 -134.898)" fill="#783acb"/>
  <path id="Path_380" data-name="Path 380" d="M128,248h27.26v15.577H128Z" transform="translate(-110.476 -195.427)" fill="#783acb"/>
  <path id="Path_381" data-name="Path 381" d="M209.313,145.1h25.313V112H184v9.736h23.366a1.947,1.947,0,0,1,1.947,1.947Z" transform="translate(-152.846 -92.529)" fill="#783acb"/>
  <path id="Path_382" data-name="Path 382" d="M198.859,32H122.921A2.924,2.924,0,0,0,120,34.921V61.207h3.894V39.789a1.947,1.947,0,0,1,1.947-1.947h70.1a1.947,1.947,0,0,1,1.947,1.947V131.3a1.947,1.947,0,0,1-1.947,1.947H160.89v7.789h37.969a2.924,2.924,0,0,0,2.921-2.921V34.921A2.924,2.924,0,0,0,198.859,32Z" transform="translate(-104.423 -32)" fill="#783acb"/>
  <path id="Path_383" data-name="Path 383" d="M212.362,118.732H185.1v40.89h33.1V72H152V91.471h3.894V79.789a1.947,1.947,0,0,1,1.947-1.947h54.52a1.947,1.947,0,0,1,1.947,1.947v37A1.947,1.947,0,0,1,212.362,118.732ZM189,126.52h7.789v3.894H189Zm0,11.683h13.63V142.1H189Zm7.789,15.577H189v-3.894h7.789Zm17.524,0h-13.63v-3.894h13.63Zm0-11.683H206.52V138.2h7.789Zm0-11.683h-13.63V126.52h13.63Z" transform="translate(-128.634 -62.264)" fill="#783acb"/>
</svg>
