<svg id="nurture" xmlns="http://www.w3.org/2000/svg" width="112.737" height="112.737" viewBox="0 0 112.737 112.737">
  <path id="Path_389" data-name="Path 389" d="M288.712,165H278.5l10.208,16.361a38.318,38.318,0,0,0,9.489-6.647,1.713,1.713,0,0,0,.5-1.588A10.246,10.246,0,0,0,288.712,165Z" transform="translate(-215.33 -127.572)" fill="#0e770e"/>
  <path id="Path_390" data-name="Path 390" d="M139.32,165a10.246,10.246,0,0,0-9.991,8.125,1.714,1.714,0,0,0,.5,1.588,38.312,38.312,0,0,0,9.489,6.647L149.528,165Z" transform="translate(-99.966 -127.572)" fill="#0e770e"/>
  <path id="Path_391" data-name="Path 391" d="M197.316,165H183.7A10.207,10.207,0,0,0,173.5,175.208v6.153a38.506,38.506,0,0,0,34.027,0v-6.153A10.207,10.207,0,0,0,197.316,165Z" transform="translate(-134.141 -127.572)" fill="#0e770e"/>
  <path id="Path_392" data-name="Path 392" d="M36.805,66.011A6.8,6.8,0,0,0,30,72.816v46.5H43.61v-46.5A6.8,6.8,0,0,0,36.805,66.011Z" transform="translate(-23.195 -51.037)" fill="#0e770e"/>
  <path id="Path_393" data-name="Path 393" d="M176.238,400.594v17.561l12.989-2.5v-6.805Z" transform="translate(-136.261 -309.726)" fill="#0e770e"/>
  <path id="Path_394" data-name="Path 394" d="M44.46,111.66,13.61,84.8V42.957A6.9,6.9,0,0,0,7,36.013a6.805,6.805,0,0,0-7,6.8V92.879A10.208,10.208,0,0,0,1.21,97.7l15.8,26.1-2.268,12.476H46.161V125.143Z" transform="translate(0 -27.842)" fill="#0e770e"/>
  <path id="Path_395" data-name="Path 395" d="M191.9,467l-3.4,3.4,3.4,3.4h5.1a1.7,1.7,0,0,0,1.7-1.7V467Z" transform="translate(-145.742 -361.068)" fill="#0e770e"/>
  <path id="Path_396" data-name="Path 396" d="M33.678,468.4l-.619,3.4a1.7,1.7,0,0,0,1.674,2.006H71.7V467H35.352A1.7,1.7,0,0,0,33.678,468.4Z" transform="translate(-25.539 -361.068)" fill="#0e770e"/>
  <path id="Path_397" data-name="Path 397" d="M413.805,66.011a6.8,6.8,0,0,1,6.8,6.805v46.5H407v-46.5A6.8,6.8,0,0,1,413.805,66.011Z" transform="translate(-314.678 -51.037)" fill="#0e770e"/>
  <path id="Path_398" data-name="Path 398" d="M432.016,36.014a6.613,6.613,0,0,0-2.519.573V92.444L422,123.8l15.8-26.1a10.208,10.208,0,0,0,1.21-4.82V42.816a6.805,6.805,0,0,0-7-6.8Z" transform="translate(-326.276 -27.843)" fill="#0e770e"/>
  <path id="Path_399" data-name="Path 399" d="M309.171,98.927a10.21,10.21,0,0,0,.49-3.124V44.778c0-2.784-1.115-5.175-2.711-6.23a6.986,6.986,0,0,0-4.094,6.371V86.757l-30.849,26.865L263.5,128.931v6.805l6.805,2.5h31.417l-2.268-12.476Z" transform="translate(-203.729 -29.804)" fill="#0e770e"/>
  <path id="Path_400" data-name="Path 400" d="M422.618,467l-2.165,3.4,3.4,3.4h4.766A1.7,1.7,0,0,0,430.3,471.8l-.619-3.4A1.7,1.7,0,0,0,428,467Z" transform="translate(-325.08 -361.068)" fill="#0e770e"/>
  <path id="Path_401" data-name="Path 401" d="M263.5,467v5.1a1.7,1.7,0,0,0,1.7,1.7h37.3L301.267,467Z" transform="translate(-203.729 -361.068)" fill="#0e770e"/>
  <path id="Path_402" data-name="Path 402" d="M300.726,223.055a6.9,6.9,0,0,0-9.587.233l-23.653,23.652a13.567,13.567,0,0,0-3.986,9.624v13.609a13.61,13.61,0,0,0,13.61-13.609l23.753-23.753A6.806,6.806,0,0,0,300.726,223.055Z" transform="translate(-203.73 -171.048)" fill="#0e770e"/>
  <path id="Path_403" data-name="Path 403" d="M139.294,263.582a13.568,13.568,0,0,0-3.986-9.624l-23.652-23.652,20.834,45.06a13.541,13.541,0,0,0,6.805,1.825Z" transform="translate(-86.328 -178.065)" fill="#0e770e"/>
  <path id="Path_404" data-name="Path 404" d="M89.547,246.941,71.718,223.289a6.9,6.9,0,0,0-9.587-.233,6.8,6.8,0,0,0-.137,9.757l23.752,23.753a13.6,13.6,0,0,0,6.8,11.784V256.565A16.064,16.064,0,0,0,89.547,246.941Z" transform="translate(-46.391 -171.048)" fill="#0e770e"/>
  <path id="Path_405" data-name="Path 405" d="M248.5,0V30.623A15.311,15.311,0,1,0,248.5,0Z" transform="translate(-192.132)" fill="#0e770e"/>
  <path id="Path_406" data-name="Path 406" d="M204.818,15.311C204.818,6.855,201.009,0,196.311,0a15.311,15.311,0,0,0,0,30.623C201.009,30.623,204.818,23.767,204.818,15.311Z" transform="translate(-139.943)" fill="#0e770e"/>
</svg>
