<svg id="performer" xmlns="http://www.w3.org/2000/svg" width="226.894" height="207.281" viewBox="0 0 226.894 207.281">
  <g id="Group_54" data-name="Group 54" transform="translate(54.065)">
    <path id="Path_427" data-name="Path 427" d="M9.625,3.25h7.09V17.431H9.625Z" transform="translate(-9.625 -3.25)" fill="#a4afc1"/>
  </g>
  <g id="Group_55" data-name="Group 55" transform="translate(29.248 21.271)">
    <path id="Path_428" data-name="Path 428" d="M6.125,6.25H20.306v7.09H6.125Z" transform="translate(-6.125 -6.25)" fill="#a4afc1"/>
  </g>
  <g id="Group_56" data-name="Group 56" transform="translate(70.018 21.271)">
    <path id="Path_429" data-name="Path 429" d="M11.875,6.25H26.056v7.09H11.875Z" transform="translate(-11.875 -6.25)" fill="#a4afc1"/>
  </g>
  <g id="Group_57" data-name="Group 57" transform="translate(69.394 95.636)">
    <path id="Path_430" data-name="Path 430" d="M35.568,33.592c-3.857,3.857-23.781,9.82-23.781,9.82s5.97-19.931,9.82-23.781A9.872,9.872,0,0,1,35.568,33.592Z" transform="translate(-11.787 -16.738)" fill="#f3f3f1"/>
  </g>
  <g id="Group_58" data-name="Group 58" transform="translate(33.68 53.178)">
    <path id="Path_431" data-name="Path 431" d="M159.195,10.75H130.613C126.224,19.556,115.184,32.4,115.184,32.4c-.227,12.742-.943,28.83-10,40.4L47.52,15.146a37.324,37.324,0,0,1,7.4-4.4H13.84a7.093,7.093,0,0,0-7.09,7.09v88.631a7.093,7.093,0,0,0,7.09,7.09H159.195a7.093,7.093,0,0,0,7.09-7.09V17.84A7.093,7.093,0,0,0,159.195,10.75ZM66.246,70.062c-3.857,3.857-23.781,9.82-23.781,9.82s5.97-19.924,9.82-23.781A9.872,9.872,0,1,1,66.246,70.062Z" transform="translate(-6.75 -10.75)" fill="#2fdf84"/>
  </g>
  <g id="Group_59" data-name="Group 59" transform="translate(69.129 19.498)">
    <path id="Path_432" data-name="Path 432" d="M113.053,11.418a5.308,5.308,0,0,0-1.56-3.857A5.526,5.526,0,0,0,107.629,6c-17.719.333-37.324,9.1-51.874,22.8-14.145.312-29.936,1.666-41.968,11.1a5.324,5.324,0,0,0-.475,7.955L70.95,105.487a5.318,5.318,0,0,0,3.772,1.567c.106,0,.213,0,.312-.007a5.329,5.329,0,0,0,3.871-2.028c9.324-11.9,10.742-27.461,11.082-41.479,13.862-14.62,22.725-34.318,23.065-52.122Z" transform="translate(-11.75 -6)" fill="#f3f3f1"/>
  </g>
  <g id="Group_60" data-name="Group 60" transform="translate(33.68 53.178)">
    <path id="Path_433" data-name="Path 433" d="M22.7,106.471V17.84a7.093,7.093,0,0,1,7.09-7.09H13.84a7.093,7.093,0,0,0-7.09,7.09v88.631a7.093,7.093,0,0,0,7.09,7.09H29.794A7.093,7.093,0,0,1,22.7,106.471Z" transform="translate(-6.75 -10.75)" fill="#00b871"/>
  </g>
  <g id="Group_61" data-name="Group 61" transform="translate(69.387 95.636)">
    <path id="Path_434" data-name="Path 434" d="M36.064,20.375a8.491,8.491,0,0,0-.5-.745,9.868,9.868,0,0,0-13.961,0c-3.857,3.857-9.82,23.781-9.82,23.781s9.813-2.943,17-6.027c1.914-5.7,4.892-13.812,7.282-17.01Z" transform="translate(-11.786 -16.738)" fill="#d5dbe1"/>
  </g>
  <g id="Group_62" data-name="Group 62" transform="translate(69.129 19.498)">
    <path id="Path_435" data-name="Path 435" d="M45.226,47.849a5.324,5.324,0,0,1,.475-7.955c12.033-9.43,27.823-10.777,41.968-11.1A88.633,88.633,0,0,1,113,12.162c.007-.248.05-.5.057-.744a5.308,5.308,0,0,0-1.56-3.857A5.526,5.526,0,0,0,107.629,6c-17.719.333-37.324,9.1-51.874,22.8-14.145.312-29.936,1.666-41.968,11.1a5.324,5.324,0,0,0-.475,7.955L70.95,105.487a5.318,5.318,0,0,0,3.772,1.567c.106,0,.213,0,.312-.007a5.329,5.329,0,0,0,3.871-2.028,46.091,46.091,0,0,0,7.785-15.691Z" transform="translate(-11.75 -6)" fill="#d5dbe1"/>
  </g>
  <g id="Group_63" data-name="Group 63" transform="translate(28.362 47.861)">
    <path id="Path_436" data-name="Path 436" d="M163.762,123.447H18.408A12.422,12.422,0,0,1,6,111.039V22.408A12.422,12.422,0,0,1,18.408,10H61.322L52.195,20.636H18.408a1.773,1.773,0,0,0-1.773,1.773v88.631a1.773,1.773,0,0,0,1.773,1.773H163.762a1.773,1.773,0,0,0,1.773-1.773V22.408a1.773,1.773,0,0,0-1.773-1.773H135.4L139.648,10h24.114a12.422,12.422,0,0,1,12.408,12.408v88.631A12.422,12.422,0,0,1,163.762,123.447Z" transform="translate(-6 -10)"/>
  </g>
  <g id="Group_64" data-name="Group 64" transform="translate(77.995 179.034)">
    <path id="Path_437" data-name="Path 437" d="M13,28.5H83.9V39.136H13Z" transform="translate(-13 -28.5)"/>
  </g>
  <g id="Group_65" data-name="Group 65" transform="translate(108.129 155.99)">
    <path id="Path_438" data-name="Path 438" d="M17.25,25.25H27.886V53.612H17.25Z" transform="translate(-17.25 -25.25)"/>
  </g>
  <g id="Group_66" data-name="Group 66" transform="translate(85.854 19.499)">
    <path id="Path_439" data-name="Path 439" d="M43.964,90.575a5.305,5.305,0,0,1-3.758-1.56l-24.54-24.54a5.317,5.317,0,0,1-.191-7.317l20.1-22.314C50.388,17.735,73.056,6.383,93.263,6a5.946,5.946,0,0,1,3.857,1.56,5.28,5.28,0,0,1,1.56,3.857C98.3,31.625,86.953,54.293,69.759,69.176L47.523,89.206a5.277,5.277,0,0,1-3.559,1.368Zm-17.2-30.049,17.4,17.4L62.718,61.206C75.9,49.8,85.372,32.731,87.57,17.111,71.957,19.309,54.9,28.775,43.552,41.885Z" transform="translate(-14.108 -6)"/>
  </g>
  <g id="Group_67" data-name="Group 67" transform="translate(111.944 74.733)">
    <path id="Path_440" data-name="Path 440" d="M37.953,59.608a5.289,5.289,0,0,1-3.765-1.567l-16.4-16.478,7.537-7.5L37.053,45.846C41.8,36.557,42.449,25,42.64,13.79l10.636.184C53.02,28.5,51.936,45.059,42.144,57.559a5.342,5.342,0,0,1-3.871,2.028A2.578,2.578,0,0,1,37.953,59.608Z" transform="translate(-17.788 -13.79)"/>
  </g>
  <g id="Group_68" data-name="Group 68" transform="translate(69.131 42.252)">
    <path id="Path_441" data-name="Path 441" d="M29.8,44.7,13.318,28.3a5.348,5.348,0,0,1-1.56-4.084,5.292,5.292,0,0,1,2.028-3.871c12.5-9.785,29.057-10.884,43.585-11.139l.191,10.636c-11.21.2-22.775.844-32.056,5.594L37.291,37.167Z" transform="translate(-11.75 -9.209)"/>
  </g>
  <g id="Group_69" data-name="Group 69" transform="translate(64.07 90.461)">
    <path id="Path_442" data-name="Path 442" d="M16.354,53.175a5.321,5.321,0,0,1-5.091-6.849c1.914-6.374,6.828-21.675,11.16-26.015a15.553,15.553,0,0,1,21.477,0,15.184,15.184,0,0,1,0,21.484c-4.339,4.332-19.648,9.246-26.022,11.153a5.093,5.093,0,0,1-1.524.227ZM33.158,26.5a4.521,4.521,0,0,0-3.219,1.333C28.8,29.053,26.748,33.874,24.72,39.5c5.616-2.028,10.437-4.084,11.671-5.226a4.545,4.545,0,0,0,0-6.431,4.568,4.568,0,0,0-3.233-1.34Z" transform="translate(-11.036 -16.008)"/>
  </g>
  <g id="Group_70" data-name="Group 70" transform="translate(0 179.034)">
    <path id="Path_443" data-name="Path 443" d="M2,28.5H228.894V56.747H2Z" transform="translate(-2 -28.5)"/>
  </g>
</svg>
