<svg xmlns="http://www.w3.org/2000/svg" width="45.559" height="30" viewBox="0 0 45.559 30">
  <g id="playback-inc" transform="translate(566 32)">
    <path id="Icon_material-slow-motion-video" data-name="Icon material-slow-motion-video" d="M19.658,14.743l-4.6-3.452V24.859l4.6-3.452,4.447-3.332Zm0,0-4.6-3.452V24.859Zm0,0-4.6-3.452,9.045,6.784ZM16.567,6.12V3.075a15,15,0,0,0-8.02,3.332l2.141,2.156A11.972,11.972,0,0,1,16.567,6.12ZM8.562,10.688,6.407,8.547a15,15,0,0,0-3.332,8.02H6.12A11.972,11.972,0,0,1,8.562,10.688ZM6.12,19.583H3.075A15,15,0,0,0,6.407,27.6l2.156-2.156A11.861,11.861,0,0,1,6.12,19.583ZM8.547,29.743a15.047,15.047,0,0,0,8.02,3.332V30.03a11.972,11.972,0,0,1-5.879-2.442L8.547,29.743Zm24.6-11.668a15.1,15.1,0,0,1-13.492,15V30.03a12.059,12.059,0,0,0,0-23.91V3.075A15.1,15.1,0,0,1,33.15,18.075Z" transform="translate(-569.075 -35.075)" fill="#87cf35"/>
    <path id="Icon_awesome-long-arrow-alt-up" data-name="Icon awesome-long-arrow-alt-up" d="M6.188,11.227V31.446a.824.824,0,0,0,.844.8h3.938a.824.824,0,0,0,.844-.8V11.227h3.239a1.6,1.6,0,0,0,1.193-2.744L10.193,2.721a1.748,1.748,0,0,0-2.386,0L1.756,8.484a1.6,1.6,0,0,0,1.193,2.744Z" transform="translate(-537.183 -34.25)" fill="#87cf35"/>
  </g>
</svg>
