<svg id="spark" xmlns="http://www.w3.org/2000/svg" width="114.04" height="114.04" viewBox="0 0 114.04 114.04">
  <path id="Path_372" data-name="Path 372" d="M10,124.041l70.458-39.1L63.241,75.791l35.35-22.755L83.731,45.283,124.042,10,55.427,44.456,72.48,53.52,38.251,75.006l18.028,9.582Z" transform="translate(-10.002 -10.001)" fill="#d1ca00"/>
  <path id="Path_373" data-name="Path 373" d="M130.836,208.73a2.308,2.308,0,0,0,1.23-.355l10.019-6.289a2.318,2.318,0,1,0-2.465-3.926L129.6,204.449a2.318,2.318,0,0,0,1.235,4.281Z" transform="translate(-98.956 -155.281)" fill="#d1ca00"/>
  <path id="Path_374" data-name="Path 374" d="M106.3,244.882a2.308,2.308,0,0,0,1.228-.354l.047-.029a2.318,2.318,0,1,0-2.46-3.929l-.047.029a2.318,2.318,0,0,0,1.232,4.283Z" transform="translate(-80.11 -187.862)" fill="#d1ca00"/>
  <path id="Path_376" data-name="Path 376" d="M361.571,342.554l-.048.027a2.318,2.318,0,1,0,2.254,4.051l.048-.027a2.318,2.318,0,0,0-2.254-4.051Z" transform="translate(-277.039 -266.254)" fill="#d1ca00"/>
  <path id="Path_377" data-name="Path 377" d="M302.122,356.6l-10.343,5.74a2.318,2.318,0,1,0,2.25,4.053l10.343-5.74a2.318,2.318,0,1,0-2.25-4.053Z" transform="translate(-223.459 -277.048)" fill="#d1ca00"/>
</svg>
