<svg xmlns="http://www.w3.org/2000/svg" xmlns:xlink="http://www.w3.org/1999/xlink" width="31" height="33.156" viewBox="0 0 31 33.156">
  <defs>
    <clipPath id="clip-path">
      <path id="Subtraction_2" data-name="Subtraction 2" d="M31,28H0V0H15.03V14.424H31V28Z" transform="translate(1564 1445)" fill="#fff"/>
    </clipPath>
  </defs>
  <g id="frwd-ten" transform="translate(-1564 -1439.845)">
    <g id="Group_266" data-name="Group 266">
      <path id="Polygon_3" data-name="Polygon 3" d="M3.123,1.6a1,1,0,0,1,1.753,0L7.187,5.8A1,1,0,0,1,6.31,7.286H1.69A1,1,0,0,1,.813,5.8Z" transform="translate(1575 1443.845) rotate(-30)" fill="#87cf35"/>
      <path id="Polygon_4" data-name="Polygon 4" d="M3.123,1.6a1,1,0,0,1,1.753,0L7.187,5.8A1,1,0,0,1,6.31,7.286H1.69A1,1,0,0,1,.813,5.8Z" transform="translate(1582 1443.845) rotate(-30)" fill="#87cf35"/>
      <g id="Mask_Group_1" data-name="Mask Group 1" clip-path="url(#clip-path)">
        <g id="Ellipse_164" data-name="Ellipse 164" transform="translate(1564 1445)" fill="none" stroke="#87cf35" stroke-width="2">
          <circle cx="14" cy="14" r="14" stroke="none"/>
          <circle cx="14" cy="14" r="13" fill="none"/>
        </g>
      </g>
    </g>
    <text id="_10" data-name="10" transform="translate(1569 1467)" fill="#87cf35" font-size="20" font-family="Impact"><tspan x="0" y="0">10</tspan></text>
  </g>
</svg>
