<svg xmlns="http://www.w3.org/2000/svg" width="35.998" height="30" viewBox="0 0 35.998 30">
  <path id="volume-up" d="M13.439,4.565l-5.56,5.559H1.5a1.5,1.5,0,0,0-1.5,1.5v9a1.5,1.5,0,0,0,1.5,1.5H7.878l5.56,5.559A1.5,1.5,0,0,0,16,26.623v-21A1.5,1.5,0,0,0,13.439,4.565ZM28.021,1.373A1.512,1.512,0,1,0,26.361,3.9a14.6,14.6,0,0,1,0,24.446,1.512,1.512,0,1,0,1.66,2.528,17.627,17.627,0,0,0,0-29.5ZM30,16.124a11.539,11.539,0,0,0-5.36-9.765,1.494,1.494,0,0,0-2.07.466,1.518,1.518,0,0,0,.463,2.085,8.541,8.541,0,0,1,0,14.427,1.517,1.517,0,0,0-.463,2.085,1.5,1.5,0,0,0,2.07.466A11.538,11.538,0,0,0,30,16.124Zm-8.86-4.8a1.5,1.5,0,1,0-1.447,2.629,2.463,2.463,0,0,1,0,4.351,1.5,1.5,0,0,0,1.447,2.629,5.464,5.464,0,0,0,0-9.608Z" transform="translate(0 -1.125)" fill="#87cf35"/>
</svg>
